<svg width="233" height="51" viewBox="0 0 233 51" fill="none" xmlns="http://www.w3.org/2000/svg">
<g clip-path="url(#clip0_14_23)">
<path d="M61.9241 49.4051C62.3488 49.6606 62.8267 49.7828 63.3682 49.7828C63.8142 49.7828 64.2177 49.6939 64.5787 49.5162C64.9397 49.3384 65.2371 49.0718 65.4707 48.7163L65.0778 48.4164C64.876 48.7052 64.6318 48.9274 64.3345 49.0718C64.0372 49.2162 63.7186 49.2829 63.3682 49.2829C62.9329 49.2829 62.54 49.1829 62.2002 48.9829C61.8604 48.783 61.5843 48.4941 61.3932 48.1164C61.202 47.7498 61.1065 47.3277 61.1065 46.8389C61.1065 46.3612 61.202 45.939 61.3932 45.5613C61.5843 45.1947 61.8604 44.9058 62.2002 44.7059C62.54 44.5059 62.9329 44.3948 63.3682 44.3948C63.7186 44.3948 64.0372 44.4726 64.3345 44.617C64.6318 44.7614 64.876 44.9725 65.0778 45.2613L65.4707 44.9614C65.2371 44.617 64.9397 44.3504 64.5787 44.1726C64.2177 43.9949 63.8142 43.8949 63.3682 43.8949C62.8267 43.8949 62.3488 44.0282 61.9241 44.2726C61.4994 44.517 61.1596 44.8725 60.926 45.3169C60.6817 45.7613 60.5649 46.2723 60.5649 46.8389C60.5649 47.4054 60.6817 47.9165 60.926 48.3608C61.1596 48.8052 61.4994 49.1607 61.9241 49.4051Z" fill="white" stroke="white" stroke-miterlimit="2"/>
<path d="M68.2309 49.4051C68.6556 49.6606 69.1228 49.7828 69.6537 49.7828C70.174 49.7828 70.6413 49.6606 71.066 49.4051C71.4907 49.1607 71.8199 48.8052 72.0641 48.3608C72.2977 47.9165 72.4252 47.4054 72.4252 46.8389C72.4252 46.2834 72.2977 45.7724 72.0641 45.328C71.8199 44.8836 71.4907 44.5281 71.066 44.2726C70.6413 44.0282 70.174 43.8949 69.6537 43.8949C69.1228 43.8949 68.6556 44.0282 68.2309 44.2726C67.8061 44.5281 67.477 44.8836 67.2434 45.328C66.9991 45.7724 66.8823 46.2834 66.8823 46.8389C66.8823 47.4054 66.9991 47.9165 67.2434 48.3608C67.477 48.8052 67.8061 49.1607 68.2309 49.4051ZM70.7899 48.9718C70.4501 49.1829 70.0785 49.2829 69.6537 49.2829C69.229 49.2829 68.8467 49.1829 68.5069 48.9718C68.1672 48.7719 67.9017 48.483 67.7106 48.1053C67.5194 47.7387 67.4239 47.3166 67.4239 46.8389C67.4239 46.3723 67.5194 45.9501 67.7106 45.5724C67.9017 45.2058 68.1672 44.917 68.5069 44.7059C68.8467 44.5059 69.229 44.3948 69.6537 44.3948C70.0785 44.3948 70.4501 44.5059 70.7899 44.7059C71.1297 44.917 71.3952 45.2058 71.5863 45.5724C71.7774 45.9501 71.8836 46.3723 71.8836 46.8389C71.8836 47.3166 71.7774 47.7387 71.5863 48.1053C71.3952 48.483 71.1297 48.7719 70.7899 48.9718Z" fill="white" stroke="white" stroke-miterlimit="2"/>
<path d="M74.5928 41.4952V49.7383H75.1237V41.4952H74.5928Z" fill="white" stroke="white" stroke-miterlimit="2"/>
<path d="M77.9023 41.4952V49.7383H78.4333V41.4952H77.9023Z" fill="white" stroke="white" stroke-miterlimit="2"/>
<path d="M84.6634 44.4504C84.2918 44.0838 83.7609 43.8949 83.0813 43.8949C82.6566 43.8949 82.2424 43.9727 81.8602 44.1171C81.4673 44.2615 81.1381 44.4615 80.862 44.717L81.1275 45.1169C81.3611 44.8947 81.6372 44.717 81.977 44.5837C82.3168 44.4504 82.6672 44.3837 83.0388 44.3837C83.5697 44.3837 83.9839 44.5281 84.2599 44.8059C84.536 45.0947 84.6847 45.5057 84.6847 46.039V46.5056H82.784C82.0619 46.5056 81.531 46.6611 81.2018 46.9611C80.8727 47.261 80.7134 47.6498 80.7134 48.1275C80.7134 48.6274 80.8833 49.0274 81.2443 49.3273C81.6053 49.6384 82.0938 49.7828 82.7096 49.7828C83.1769 49.7828 83.591 49.6939 83.9308 49.5051C84.2706 49.3162 84.5254 49.0496 84.7059 48.7052V49.7384H85.2156V46.0612C85.2156 45.3502 85.0245 44.817 84.6634 44.4504ZM83.952 48.9941C83.6335 49.2162 83.2406 49.3273 82.784 49.3273C82.2955 49.3273 81.9133 49.2273 81.6478 49.0052C81.3717 48.783 81.2443 48.483 81.2443 48.1053C81.2443 47.7498 81.3611 47.461 81.6053 47.2499C81.8495 47.0499 82.2424 46.9388 82.7946 46.9388H84.6847V48.0275C84.5148 48.4497 84.2706 48.7719 83.952 48.9941Z" fill="white" stroke="white" stroke-miterlimit="2"/>
<path d="M92.128 44.2726C91.7033 44.0282 91.2361 43.8948 90.7264 43.8948C90.2379 43.8948 89.7919 44.017 89.3991 44.2614C88.9956 44.5059 88.6876 44.8391 88.4753 45.2613V41.4952H87.9443V49.7383H88.454V48.3719C88.6664 48.8162 88.9743 49.1717 89.3778 49.4161C89.7813 49.6606 90.2273 49.7828 90.7264 49.7828C91.2361 49.7828 91.7033 49.6606 92.128 49.405C92.5421 49.1606 92.8713 48.8051 93.1049 48.3608C93.3385 47.9164 93.4659 47.4165 93.4659 46.8388C93.4659 46.2722 93.3385 45.7612 93.1049 45.3168C92.8713 44.8725 92.5421 44.517 92.128 44.2726ZM91.8413 48.9718C91.5015 49.1829 91.1192 49.2828 90.6945 49.2828C90.2698 49.2828 89.8875 49.1829 89.5477 48.9718C89.2079 48.7718 88.9425 48.483 88.7513 48.1053C88.5602 47.7386 88.4646 47.3165 88.4646 46.8388C88.4646 46.3722 88.5602 45.9501 88.7513 45.5723C88.9425 45.2057 89.2079 44.9169 89.5477 44.7058C89.8875 44.5059 90.2698 44.3948 90.6945 44.3948C91.1192 44.3948 91.5015 44.5059 91.8413 44.7058C92.1811 44.9169 92.4466 45.2057 92.6377 45.5723C92.8288 45.9501 92.935 46.3722 92.935 46.8388C92.935 47.3165 92.8288 47.7386 92.6377 48.1053C92.4466 48.483 92.1811 48.7718 91.8413 48.9718Z" fill="white" stroke="white" stroke-miterlimit="2"/>
<path d="M96.3944 49.4051C96.8192 49.6606 97.2864 49.7828 97.8173 49.7828C98.3376 49.7828 98.8048 49.6606 99.2296 49.4051C99.6543 49.1607 99.9835 48.8052 100.228 48.3608C100.461 47.9165 100.589 47.4054 100.589 46.8389C100.589 46.2834 100.461 45.7724 100.228 45.328C99.9835 44.8836 99.6543 44.5281 99.2296 44.2726C98.8048 44.0282 98.3376 43.8949 97.8173 43.8949C97.2864 43.8949 96.8192 44.0282 96.3944 44.2726C95.9697 44.5281 95.6405 44.8836 95.4069 45.328C95.1627 45.7724 95.0459 46.2834 95.0459 46.8389C95.0459 47.4054 95.1627 47.9165 95.4069 48.3608C95.6405 48.8052 95.9697 49.1607 96.3944 49.4051ZM98.9535 48.9718C98.6137 49.1829 98.2421 49.2829 97.8173 49.2829C97.3926 49.2829 97.0103 49.1829 96.6705 48.9718C96.3307 48.7719 96.0653 48.483 95.8741 48.1053C95.683 47.7387 95.5874 47.3166 95.5874 46.8389C95.5874 46.3723 95.683 45.9501 95.8741 45.5724C96.0653 45.2058 96.3307 44.917 96.6705 44.7059C97.0103 44.5059 97.3926 44.3948 97.8173 44.3948C98.2421 44.3948 98.6137 44.5059 98.9535 44.7059C99.2933 44.917 99.5587 45.2058 99.7499 45.5724C99.941 45.9501 100.047 46.3723 100.047 46.8389C100.047 47.3166 99.941 47.7387 99.7499 48.1053C99.5587 48.483 99.2933 48.7719 98.9535 48.9718Z" fill="white" stroke="white" stroke-miterlimit="2"/>
<path d="M104.062 44.2393C103.701 44.4615 103.436 44.7836 103.266 45.2058V43.9393H102.756V49.7384H103.287V46.7167C103.287 46.0057 103.457 45.4391 103.808 45.0392C104.147 44.6392 104.636 44.4281 105.252 44.4281L105.379 44.4393V43.8949C104.859 43.8949 104.423 44.0171 104.062 44.2393Z" fill="white" stroke="white" stroke-miterlimit="2"/>
<path d="M110.824 44.4504C110.452 44.0838 109.922 43.8949 109.242 43.8949C108.817 43.8949 108.403 43.9727 108.021 44.1171C107.628 44.2615 107.299 44.4615 107.023 44.717L107.288 45.1169C107.522 44.8947 107.798 44.717 108.138 44.5837C108.477 44.4504 108.828 44.3837 109.199 44.3837C109.73 44.3837 110.145 44.5281 110.421 44.8059C110.697 45.0947 110.845 45.5057 110.845 46.039V46.5056H108.945C108.223 46.5056 107.692 46.6611 107.362 46.9611C107.033 47.261 106.874 47.6498 106.874 48.1275C106.874 48.6274 107.044 49.0274 107.405 49.3273C107.766 49.6384 108.254 49.7828 108.87 49.7828C109.338 49.7828 109.752 49.6939 110.091 49.5051C110.431 49.3162 110.686 49.0496 110.867 48.7052V49.7384H111.376V46.0612C111.376 45.3502 111.185 44.817 110.824 44.4504ZM110.113 48.9941C109.794 49.2162 109.401 49.3273 108.945 49.3273C108.456 49.3273 108.074 49.2273 107.808 49.0052C107.532 48.783 107.405 48.483 107.405 48.1053C107.405 47.7498 107.522 47.461 107.766 47.2499C108.01 47.0499 108.403 46.9388 108.955 46.9388H110.845V48.0275C110.675 48.4497 110.431 48.7719 110.113 48.9941Z" fill="white" stroke="white" stroke-miterlimit="2"/>
<path d="M116.855 49.3717L116.632 48.9829C116.398 49.2051 116.111 49.3051 115.772 49.3051C115.432 49.3051 115.166 49.2162 114.997 49.0162C114.827 48.8163 114.742 48.5274 114.742 48.1497V44.417H116.504V43.9393H114.742V42.6729H114.211V43.9393H113.191V44.417H114.211V48.2053C114.211 48.7052 114.338 49.094 114.604 49.3717C114.858 49.6495 115.23 49.7828 115.719 49.7828C115.931 49.7828 116.143 49.7495 116.345 49.6828C116.547 49.6161 116.717 49.5051 116.855 49.3717Z" fill="white" stroke="white" stroke-miterlimit="2"/>
<path d="M121.929 49.0829C121.622 49.2162 121.282 49.2829 120.931 49.2829C120.358 49.2829 119.88 49.1274 119.477 48.8163C119.073 48.5052 118.797 48.0831 118.67 47.5498L123.352 46.5944C123.32 46.0834 123.204 45.6279 122.97 45.2169C122.736 44.8059 122.429 44.4837 122.046 44.2504C121.664 44.0171 121.229 43.8949 120.751 43.8949C120.23 43.8949 119.763 44.0282 119.36 44.2726C118.946 44.5281 118.627 44.8725 118.393 45.3169C118.16 45.7613 118.054 46.2723 118.054 46.8389C118.054 47.4165 118.171 47.9165 118.415 48.3608C118.659 48.8052 118.999 49.1607 119.434 49.4051C119.869 49.6606 120.358 49.7828 120.921 49.7828C121.345 49.7828 121.738 49.705 122.11 49.5495C122.46 49.394 122.768 49.1607 123.013 48.8385L122.705 48.4719C122.492 48.7496 122.237 48.9496 121.929 49.0829ZM119.625 44.6948C119.954 44.4948 120.326 44.3837 120.751 44.3837C121.112 44.3837 121.452 44.4726 121.749 44.6392C122.046 44.8059 122.28 45.0392 122.471 45.3169C122.652 45.6057 122.768 45.9279 122.821 46.2723L118.595 47.1388C118.574 46.9944 118.574 46.8833 118.574 46.7944C118.574 46.3389 118.659 45.9168 118.85 45.5502C119.031 45.1836 119.285 44.8947 119.625 44.6948Z" fill="white" stroke="white" stroke-miterlimit="2"/>
<path d="M129.017 49.4051C129.442 49.6606 129.909 49.7828 130.44 49.7828C130.96 49.7828 131.427 49.6606 131.852 49.4051C132.277 49.1607 132.606 48.8052 132.85 48.3608C133.084 47.9165 133.211 47.4054 133.211 46.8389C133.211 46.2834 133.084 45.7724 132.85 45.328C132.606 44.8836 132.277 44.5281 131.852 44.2726C131.427 44.0282 130.96 43.8949 130.44 43.8949C129.909 43.8949 129.442 44.0282 129.017 44.2726C128.592 44.5281 128.263 44.8836 128.029 45.328C127.785 45.7724 127.668 46.2834 127.668 46.8389C127.668 47.4054 127.785 47.9165 128.029 48.3608C128.263 48.8052 128.592 49.1607 129.017 49.4051ZM131.576 48.9718C131.236 49.1829 130.865 49.2829 130.44 49.2829C130.015 49.2829 129.633 49.1829 129.293 48.9718C128.953 48.7719 128.688 48.483 128.497 48.1053C128.306 47.7387 128.21 47.3166 128.21 46.8389C128.21 46.3723 128.306 45.9501 128.497 45.5724C128.688 45.2058 128.953 44.917 129.293 44.7059C129.633 44.5059 130.015 44.3948 130.44 44.3948C130.865 44.3948 131.236 44.5059 131.576 44.7059C131.916 44.917 132.181 45.2058 132.372 45.5724C132.564 45.9501 132.67 46.3723 132.67 46.8389C132.67 47.3166 132.564 47.7387 132.372 48.1053C132.181 48.483 131.916 48.7719 131.576 48.9718Z" fill="white" stroke="white" stroke-miterlimit="2"/>
<path d="M139.732 44.5281C139.329 44.106 138.777 43.8949 138.087 43.8949C137.566 43.8949 137.12 44.0171 136.738 44.2393C136.356 44.4726 136.08 44.7947 135.889 45.1947V43.9393H135.379V49.7384H135.91V46.65C135.91 45.9612 136.09 45.4169 136.473 45.0058C136.844 44.6059 137.354 44.3948 138.012 44.3948C138.575 44.3948 139.01 44.5726 139.329 44.9058C139.648 45.2502 139.807 45.7501 139.807 46.3945V49.7384H140.338V46.35C140.338 45.5613 140.136 44.9503 139.732 44.5281Z" fill="white" stroke="white" stroke-miterlimit="2"/>
<path d="M146.556 49.4051C146.981 49.6606 147.459 49.7828 148.001 49.7828C148.447 49.7828 148.85 49.6939 149.211 49.5162C149.572 49.3384 149.869 49.0718 150.103 48.7163L149.71 48.4164C149.508 48.7052 149.264 48.9274 148.967 49.0718C148.669 49.2162 148.351 49.2829 148.001 49.2829C147.565 49.2829 147.172 49.1829 146.832 48.9829C146.493 48.783 146.217 48.4941 146.026 48.1164C145.834 47.7498 145.739 47.3277 145.739 46.8389C145.739 46.3612 145.834 45.939 146.026 45.5613C146.217 45.1947 146.493 44.9058 146.832 44.7059C147.172 44.5059 147.565 44.3948 148.001 44.3948C148.351 44.3948 148.669 44.4726 148.967 44.617C149.264 44.7614 149.508 44.9725 149.71 45.2613L150.103 44.9614C149.869 44.617 149.572 44.3504 149.211 44.1726C148.85 43.9949 148.447 43.8949 148.001 43.8949C147.459 43.8949 146.981 44.0282 146.556 44.2726C146.132 44.517 145.792 44.8725 145.558 45.3169C145.314 45.7613 145.197 46.2723 145.197 46.8389C145.197 47.4054 145.314 47.9165 145.558 48.3608C145.792 48.8052 146.132 49.1607 146.556 49.4051Z" fill="white" stroke="white" stroke-miterlimit="2"/>
<path d="M152.863 49.4051C153.288 49.6606 153.755 49.7828 154.286 49.7828C154.806 49.7828 155.274 49.6606 155.698 49.4051C156.123 49.1607 156.452 48.8052 156.696 48.3608C156.93 47.9165 157.057 47.4054 157.057 46.8389C157.057 46.2834 156.93 45.7724 156.696 45.328C156.452 44.8836 156.123 44.5281 155.698 44.2726C155.274 44.0282 154.806 43.8949 154.286 43.8949C153.755 43.8949 153.288 44.0282 152.863 44.2726C152.438 44.5281 152.109 44.8836 151.876 45.328C151.631 45.7724 151.515 46.2834 151.515 46.8389C151.515 47.4054 151.631 47.9165 151.876 48.3608C152.109 48.8052 152.438 49.1607 152.863 49.4051ZM155.422 48.9718C155.082 49.1829 154.711 49.2829 154.286 49.2829C153.861 49.2829 153.479 49.1829 153.139 48.9718C152.799 48.7719 152.534 48.483 152.343 48.1053C152.152 47.7387 152.056 47.3166 152.056 46.8389C152.056 46.3723 152.152 45.9501 152.343 45.5724C152.534 45.2058 152.799 44.917 153.139 44.7059C153.479 44.5059 153.861 44.3948 154.286 44.3948C154.711 44.3948 155.082 44.5059 155.422 44.7059C155.762 44.917 156.027 45.2058 156.219 45.5724C156.41 45.9501 156.516 46.3723 156.516 46.8389C156.516 47.3166 156.41 47.7387 156.219 48.1053C156.027 48.483 155.762 48.7719 155.422 48.9718Z" fill="white" stroke="white" stroke-miterlimit="2"/>
<path d="M164.152 41.4952H163.621V45.2835C163.387 44.8502 163.079 44.5059 162.686 44.2614C162.294 44.017 161.848 43.8948 161.359 43.8948C160.839 43.8948 160.372 44.0282 159.958 44.2726C159.533 44.517 159.204 44.8725 158.97 45.3168C158.736 45.7612 158.62 46.2722 158.62 46.8388C158.62 47.4165 158.736 47.9164 158.97 48.3608C159.204 48.8051 159.533 49.1606 159.958 49.405C160.372 49.6606 160.839 49.7828 161.359 49.7828C161.858 49.7828 162.304 49.6606 162.708 49.4161C163.101 49.1717 163.409 48.8274 163.632 48.3719V49.7383H164.152V41.4952ZM162.527 48.9718C162.187 49.1829 161.816 49.2828 161.391 49.2828C160.966 49.2828 160.584 49.1829 160.244 48.9718C159.904 48.7718 159.639 48.483 159.448 48.1053C159.257 47.7386 159.161 47.3165 159.161 46.8388C159.161 46.3722 159.257 45.9501 159.448 45.5723C159.639 45.2057 159.904 44.9169 160.244 44.7058C160.584 44.5059 160.966 44.3948 161.391 44.3948C161.816 44.3948 162.187 44.5059 162.527 44.7058C162.867 44.9169 163.132 45.2057 163.324 45.5723C163.515 45.9501 163.621 46.3722 163.621 46.8388C163.621 47.3165 163.515 47.7386 163.324 48.1053C163.132 48.483 162.867 48.7718 162.527 48.9718Z" fill="white" stroke="white" stroke-miterlimit="2"/>
<path d="M170.202 49.0829C169.894 49.2162 169.554 49.2829 169.204 49.2829C168.63 49.2829 168.153 49.1274 167.749 48.8163C167.346 48.5052 167.069 48.0831 166.942 47.5498L171.625 46.5944C171.593 46.0834 171.476 45.6279 171.243 45.2169C171.009 44.8059 170.701 44.4837 170.319 44.2504C169.936 44.0171 169.501 43.8949 169.023 43.8949C168.503 43.8949 168.036 44.0282 167.632 44.2726C167.218 44.5281 166.9 44.8725 166.666 45.3169C166.432 45.7613 166.326 46.2723 166.326 46.8389C166.326 47.4165 166.443 47.9165 166.687 48.3608C166.931 48.8052 167.271 49.1607 167.707 49.4051C168.142 49.6606 168.63 49.7828 169.193 49.7828C169.618 49.7828 170.011 49.705 170.382 49.5495C170.733 49.394 171.041 49.1607 171.285 48.8385L170.977 48.4719C170.765 48.7496 170.51 48.9496 170.202 49.0829ZM167.898 44.6948C168.227 44.4948 168.599 44.3837 169.023 44.3837C169.384 44.3837 169.724 44.4726 170.021 44.6392C170.319 44.8059 170.552 45.0392 170.743 45.3169C170.924 45.6057 171.041 45.9279 171.094 46.2723L166.868 47.1388C166.846 46.9944 166.846 46.8833 166.846 46.7944C166.846 46.3389 166.931 45.9168 167.123 45.5502C167.303 45.1836 167.558 44.8947 167.898 44.6948Z" fill="white" stroke="white" stroke-miterlimit="2"/>
<path d="M72.0042 34.9686C75.737 34.9686 79.2691 33.0369 81.4366 29.7615L76.4595 26.1921C75.456 27.7458 73.7703 28.6697 72.0042 28.6697C68.9939 28.6697 66.5856 26.1081 66.5856 23.0006C66.5856 19.8511 68.9939 17.3315 72.0042 17.3315C73.7301 17.3315 75.4159 18.2134 76.4193 19.7251L81.3563 16.1137C80.3127 14.56 78.9079 13.3002 77.3425 12.4184C75.6969 11.4945 73.8505 11.0326 72.0042 11.0326C70.4388 11.0326 68.9537 11.3265 67.5489 11.9564C66.1842 12.5863 64.94 13.4262 63.8964 14.518C62.8528 15.6518 62.0099 16.9116 61.448 18.3394C60.8459 19.8091 60.5649 21.4049 60.5649 23.0006C60.5649 24.5963 60.8459 26.1921 61.448 27.6618C62.0099 29.0896 62.8528 30.3494 63.8964 31.4832C64.94 32.575 66.1842 33.4149 67.5489 34.0448C68.9537 34.6327 70.4388 34.9686 72.0042 34.9686Z" fill="white"/>
<path d="M92.9354 34.9266C94.4606 34.9266 95.9858 34.5907 97.3906 34.0028C98.7553 33.3729 99.9996 32.533 101.043 31.4412C102.087 30.3074 102.889 29.0476 103.492 27.6198C104.094 26.1501 104.375 24.5543 104.375 22.9586C104.375 21.3209 104.094 19.7671 103.492 18.2974C102.889 16.8696 102.087 15.5678 101.043 14.476C99.9594 13.3842 98.7553 12.5443 97.3906 11.9144C95.9858 11.2846 94.4606 10.9906 92.9354 10.9906C91.4101 10.9906 89.8849 11.2846 88.4801 11.9144C87.1154 12.5443 85.9113 13.3842 84.8275 14.476C83.784 15.6098 82.9812 16.8696 82.3791 18.2974C81.8172 19.7671 81.4961 21.3209 81.4961 22.9586C81.4961 24.5543 81.8172 26.1501 82.3791 27.6198C82.9812 29.0476 83.784 30.3074 84.8275 31.4412C85.9113 32.533 87.1154 33.3729 88.4801 34.0028C89.8849 34.5907 91.4101 34.9266 92.9354 34.9266ZM92.9354 17.2896C95.9055 17.2896 98.354 19.8511 98.354 22.9586C98.354 26.0661 95.9055 28.6277 92.9354 28.6277C89.9652 28.6277 87.5168 26.0661 87.5168 22.9586C87.5168 19.8511 89.9652 17.2896 92.9354 17.2896Z" fill="white"/>
<path d="M106.131 27.6198C106.733 29.0476 107.535 30.3493 108.579 31.4412C109.663 32.533 110.867 33.4148 112.232 34.0027C113.636 34.6326 115.162 34.9266 116.687 34.9266C118.212 34.9266 119.737 34.6326 121.142 34.0027C122.507 33.4148 123.711 32.533 124.795 31.4412C125.838 30.3493 126.641 29.0476 127.243 27.6198C127.845 26.15 128.126 24.5963 128.126 22.9586V2.59196L122.105 0.49231V12.4183C121.784 12.2504 121.463 12.0824 121.142 11.9564C119.737 11.3265 118.252 11.0326 116.687 11.0326C115.162 11.0326 113.636 11.3265 112.232 11.9564C110.867 12.5443 109.663 13.4262 108.579 14.518C107.535 15.6098 106.733 16.9116 106.131 18.3393C105.569 19.8091 105.248 21.3628 105.248 22.9586C105.248 24.5963 105.569 26.15 106.131 27.6198ZM116.687 17.2895C119.657 17.2895 122.105 19.8511 122.105 22.9586C122.105 26.1081 119.657 28.6276 116.687 28.6276C113.717 28.6276 111.268 26.1081 111.268 22.9586C111.268 19.8511 113.717 17.2895 116.687 17.2895Z" fill="white"/>
<path d="M140.661 34.8006C142.226 34.8006 143.751 34.4647 145.196 33.7928C146.601 33.1629 147.845 32.2391 148.889 31.1053L144.634 26.906C143.591 28.0818 142.186 28.7117 140.661 28.7117C138.694 28.7117 136.968 27.6198 136.005 26.0241H151.939V22.9586C151.939 19.8091 150.775 16.8276 148.648 14.602C146.521 12.3764 143.671 11.1166 140.661 11.1166C137.61 11.1166 134.801 12.3764 132.633 14.602C130.506 16.8276 129.342 19.8091 129.342 22.9586C129.342 26.1081 130.506 29.0896 132.633 31.3152C134.801 33.5409 137.61 34.8006 140.661 34.8006ZM136.005 19.9351C136.968 18.2974 138.694 17.2056 140.661 17.2056C142.587 17.2056 144.313 18.2974 145.317 19.9351H136.005Z" fill="white"/>
<path d="M163.568 34.9686C167.301 34.9686 170.833 33.0369 173.001 29.7615L168.023 26.1921C167.02 27.7458 165.334 28.6697 163.568 28.6697C160.558 28.6697 158.15 26.1081 158.15 23.0006C158.15 19.8511 160.558 17.3315 163.568 17.3315C165.294 17.3315 166.98 18.2134 167.983 19.7251L172.92 16.1137C171.877 14.56 170.472 13.3002 168.906 12.4184C167.261 11.4945 165.415 11.0326 163.568 11.0326C162.003 11.0326 160.518 11.3265 159.113 11.9564C157.748 12.5863 156.504 13.4262 155.46 14.518C154.417 15.6518 153.574 16.9116 153.012 18.3394C152.41 19.8091 152.129 21.4049 152.129 23.0006C152.129 24.5963 152.41 26.1921 153.012 27.6618C153.574 29.0896 154.417 30.3494 155.46 31.4832C156.504 32.575 157.748 33.4149 159.113 34.0448C160.518 34.6327 162.003 34.9686 163.568 34.9686Z" fill="white"/>
<path d="M184.5 34.9266C186.025 34.9266 187.55 34.5907 188.955 34.0028C190.32 33.3729 191.564 32.533 192.608 31.4412C193.651 30.3074 194.454 29.0476 195.056 27.6198C195.658 26.1501 195.939 24.5543 195.939 22.9586C195.939 21.3209 195.658 19.7671 195.056 18.2974C194.454 16.8696 193.651 15.5678 192.608 14.476C191.524 13.3842 190.32 12.5443 188.955 11.9144C187.55 11.2846 186.025 10.9906 184.5 10.9906C182.975 10.9906 181.449 11.2846 180.045 11.9144C178.68 12.5443 177.476 13.3842 176.392 14.476C175.348 15.6098 174.546 16.8696 173.944 18.2974C173.382 19.7671 173.061 21.3209 173.061 22.9586C173.061 24.5543 173.382 26.1501 173.944 27.6198C174.546 29.0476 175.348 30.3074 176.392 31.4412C177.476 32.533 178.68 33.3729 180.045 34.0028C181.449 34.5907 182.975 34.9266 184.5 34.9266ZM184.5 17.2896C187.47 17.2896 189.918 19.8511 189.918 22.9586C189.918 26.0661 187.47 28.6277 184.5 28.6277C181.53 28.6277 179.081 26.0661 179.081 22.9586C179.081 19.8511 181.53 17.2896 184.5 17.2896Z" fill="white"/>
<path d="M204.117 34.6327V24.3024C204.117 20.2711 207.248 16.9536 211.141 16.9536V10.6547C209.375 10.6547 207.649 11.0326 206.043 11.7465C204.518 12.4184 203.113 13.4262 201.909 14.686C200.705 15.9038 199.782 17.3735 199.1 19.0113C198.417 20.691 198.096 22.4547 198.096 24.3024V34.6327H204.117Z" fill="white"/>
<path d="M211.257 27.6198C211.859 29.0476 212.662 30.3493 213.705 31.4412C214.789 32.533 215.993 33.4148 217.358 34.0027C218.763 34.6326 220.288 34.9266 221.813 34.9266C223.338 34.9266 224.864 34.6326 226.269 34.0027C227.633 33.4148 228.837 32.533 229.921 31.4412C230.965 30.3493 231.767 29.0476 232.369 27.6198C232.972 26.15 233.253 24.5963 233.253 22.9586V2.59196L227.232 0.49231V12.4183C226.911 12.2504 226.59 12.0824 226.269 11.9564C224.864 11.3265 223.379 11.0326 221.813 11.0326C220.288 11.0326 218.763 11.3265 217.358 11.9564C215.993 12.5443 214.789 13.4262 213.705 14.518C212.662 15.6098 211.859 16.9116 211.257 18.3393C210.695 19.8091 210.374 21.3628 210.374 22.9586C210.374 24.5963 210.695 26.15 211.257 27.6198ZM221.813 17.2895C224.783 17.2895 227.232 19.8511 227.232 22.9586C227.232 26.1081 224.783 28.6276 221.813 28.6276C218.843 28.6276 216.395 26.1081 216.395 22.9586C216.395 19.8511 218.843 17.2895 221.813 17.2895Z" fill="white"/>
<g filter="url(#filter0_d_14_23)">
<circle cx="13" cy="9" r="3" fill="white"/>
</g>
<g filter="url(#filter1_d_14_23)">
<circle cx="24" cy="9" r="3" fill="white"/>
</g>
<g filter="url(#filter2_d_14_23)">
<circle cx="34" cy="9" r="3" fill="white"/>
</g>
<path d="M22 43.5C22 36.5964 27.5964 31 34.5 31V31C41.4036 31 47 36.5964 47 43.5V47.7647C47 48.9992 45.9992 50 44.7647 50H22V43.5Z" fill="url(#paint0_linear_14_23)"/>
<path d="M0 43.5C0 36.5964 5.59644 31 12.5 31V31C19.4036 31 25 36.5964 25 43.5V50H2.23529C1.00078 50 0 48.9992 0 47.7647V43.5Z" fill="url(#paint1_linear_14_23)"/>
<circle cx="34" cy="22" r="7" fill="url(#paint2_radial_14_23)"/>
<circle cx="12" cy="22" r="7" fill="url(#paint3_radial_14_23)"/>
</g>
<defs>
<filter id="filter0_d_14_23" x="3.29787" y="-0.702125" width="19.4043" height="19.4043" filterUnits="userSpaceOnUse" color-interpolation-filters="sRGB">
<feFlood flood-opacity="0" result="BackgroundImageFix"/>
<feColorMatrix in="SourceAlpha" type="matrix" values="0 0 0 0 0 0 0 0 0 0 0 0 0 0 0 0 0 0 127 0" result="hardAlpha"/>
<feMorphology radius="0.957446" operator="dilate" in="SourceAlpha" result="effect1_dropShadow_14_23"/>
<feOffset/>
<feGaussianBlur stdDeviation="2.87234"/>
<feComposite in2="hardAlpha" operator="out"/>
<feColorMatrix type="matrix" values="0 0 0 0 1 0 0 0 0 1 0 0 0 0 1 0 0 0 0.25 0"/>
<feBlend mode="normal" in2="BackgroundImageFix" result="effect1_dropShadow_14_23"/>
<feBlend mode="normal" in="SourceGraphic" in2="effect1_dropShadow_14_23" result="shape"/>
</filter>
<filter id="filter1_d_14_23" x="14.2979" y="-0.702125" width="19.4043" height="19.4043" filterUnits="userSpaceOnUse" color-interpolation-filters="sRGB">
<feFlood flood-opacity="0" result="BackgroundImageFix"/>
<feColorMatrix in="SourceAlpha" type="matrix" values="0 0 0 0 0 0 0 0 0 0 0 0 0 0 0 0 0 0 127 0" result="hardAlpha"/>
<feMorphology radius="0.957446" operator="dilate" in="SourceAlpha" result="effect1_dropShadow_14_23"/>
<feOffset/>
<feGaussianBlur stdDeviation="2.87234"/>
<feComposite in2="hardAlpha" operator="out"/>
<feColorMatrix type="matrix" values="0 0 0 0 1 0 0 0 0 1 0 0 0 0 1 0 0 0 0.25 0"/>
<feBlend mode="normal" in2="BackgroundImageFix" result="effect1_dropShadow_14_23"/>
<feBlend mode="normal" in="SourceGraphic" in2="effect1_dropShadow_14_23" result="shape"/>
</filter>
<filter id="filter2_d_14_23" x="24.2979" y="-0.702125" width="19.4043" height="19.4043" filterUnits="userSpaceOnUse" color-interpolation-filters="sRGB">
<feFlood flood-opacity="0" result="BackgroundImageFix"/>
<feColorMatrix in="SourceAlpha" type="matrix" values="0 0 0 0 0 0 0 0 0 0 0 0 0 0 0 0 0 0 127 0" result="hardAlpha"/>
<feMorphology radius="0.957446" operator="dilate" in="SourceAlpha" result="effect1_dropShadow_14_23"/>
<feOffset/>
<feGaussianBlur stdDeviation="2.87234"/>
<feComposite in2="hardAlpha" operator="out"/>
<feColorMatrix type="matrix" values="0 0 0 0 1 0 0 0 0 1 0 0 0 0 1 0 0 0 0.25 0"/>
<feBlend mode="normal" in2="BackgroundImageFix" result="effect1_dropShadow_14_23"/>
<feBlend mode="normal" in="SourceGraphic" in2="effect1_dropShadow_14_23" result="shape"/>
</filter>
<linearGradient id="paint0_linear_14_23" x1="27.5" y1="50" x2="26.3402" y2="34.3577" gradientUnits="userSpaceOnUse">
<stop stop-color="white"/>
<stop offset="0.476667" stop-color="#F6F6F6"/>
<stop offset="1" stop-color="#ECECEC"/>
</linearGradient>
<linearGradient id="paint1_linear_14_23" x1="12" y1="50" x2="12" y2="31" gradientUnits="userSpaceOnUse">
<stop stop-color="white"/>
<stop offset="0.481667" stop-color="#F2F2F2"/>
<stop offset="1" stop-color="#E5E5E5"/>
</linearGradient>
<radialGradient id="paint2_radial_14_23" cx="0" cy="0" r="1" gradientUnits="userSpaceOnUse" gradientTransform="translate(34 22) rotate(90) scale(7)">
<stop stop-color="white"/>
<stop offset="1" stop-color="#EDEDED"/>
</radialGradient>
<radialGradient id="paint3_radial_14_23" cx="0" cy="0" r="1" gradientUnits="userSpaceOnUse" gradientTransform="translate(12 22) rotate(90) scale(7)">
<stop stop-color="#EDEDED"/>
<stop offset="1" stop-color="#E5E5E5"/>
</radialGradient>
<clipPath id="clip0_14_23">
<rect width="233" height="51" fill="white"/>
</clipPath>
</defs>
</svg>
