<svg width="513" height="252" viewBox="0 0 513 252" fill="none" xmlns="http://www.w3.org/2000/svg">
<g clip-path="url(#clip0_560_57)">
<rect y="132" width="378" height="120" rx="10" fill="#3C6392"/>
<rect y="132" width="378" height="120" rx="10" fill="url(#paint0_linear_560_57)" fill-opacity="0.2"/>
<rect x="14" y="204" width="104" height="35" rx="10" fill="#0098FA"/>
<path d="M34.0114 227V215.364H38.6023C39.4811 215.364 40.2311 215.521 40.8523 215.835C41.4773 216.146 41.9527 216.587 42.2784 217.159C42.608 217.727 42.7727 218.396 42.7727 219.165C42.7727 219.937 42.6061 220.602 42.2727 221.159C41.9394 221.712 41.4564 222.136 40.8239 222.432C40.1951 222.727 39.4337 222.875 38.5398 222.875H35.4659V220.898H38.142C38.6117 220.898 39.0019 220.833 39.3125 220.705C39.6231 220.576 39.8542 220.383 40.0057 220.125C40.161 219.867 40.2386 219.547 40.2386 219.165C40.2386 218.778 40.161 218.453 40.0057 218.188C39.8542 217.922 39.6212 217.722 39.3068 217.585C38.9962 217.445 38.6042 217.375 38.1307 217.375H36.4716V227H34.0114ZM40.2955 221.705L43.1875 227H40.4716L37.642 221.705H40.2955ZM48.3026 227.17C47.4048 227.17 46.6321 226.989 45.9844 226.625C45.3404 226.258 44.8442 225.739 44.4957 225.068C44.1473 224.394 43.973 223.597 43.973 222.676C43.973 221.778 44.1473 220.991 44.4957 220.312C44.8442 219.634 45.3348 219.106 45.9673 218.727C46.6037 218.348 47.3499 218.159 48.206 218.159C48.7817 218.159 49.3177 218.252 49.8139 218.438C50.3139 218.619 50.7495 218.894 51.1207 219.261C51.4957 219.629 51.7874 220.091 51.9957 220.648C52.2041 221.201 52.3082 221.848 52.3082 222.591V223.256H44.9389V221.756H50.0298C50.0298 221.407 49.9541 221.098 49.8026 220.83C49.651 220.561 49.4408 220.35 49.1719 220.199C48.9067 220.044 48.598 219.966 48.2457 219.966C47.8783 219.966 47.5526 220.051 47.2685 220.222C46.9882 220.388 46.7685 220.614 46.6094 220.898C46.4503 221.178 46.3688 221.491 46.3651 221.835V223.261C46.3651 223.693 46.4446 224.066 46.6037 224.381C46.7666 224.695 46.9957 224.938 47.2912 225.108C47.5866 225.278 47.937 225.364 48.3423 225.364C48.6113 225.364 48.8575 225.326 49.081 225.25C49.3045 225.174 49.4957 225.061 49.6548 224.909C49.8139 224.758 49.9351 224.572 50.0185 224.352L52.2571 224.5C52.1435 225.038 51.9105 225.508 51.5582 225.909C51.2098 226.307 50.759 226.617 50.206 226.841C49.6567 227.061 49.0223 227.17 48.3026 227.17ZM57.8196 230.455C57.0355 230.455 56.3632 230.347 55.8026 230.131C55.2457 229.919 54.8026 229.629 54.473 229.261C54.1435 228.894 53.9295 228.481 53.831 228.023L56.0696 227.722C56.1378 227.896 56.2457 228.059 56.3935 228.21C56.5412 228.362 56.7363 228.483 56.9787 228.574C57.2249 228.669 57.5241 228.716 57.8764 228.716C58.4029 228.716 58.8366 228.587 59.1776 228.33C59.5223 228.076 59.6946 227.65 59.6946 227.051V225.455H59.5923C59.4863 225.697 59.3272 225.926 59.1151 226.142C58.9029 226.358 58.6302 226.534 58.2969 226.67C57.9635 226.807 57.5658 226.875 57.1037 226.875C56.4484 226.875 55.8518 226.723 55.3139 226.42C54.7798 226.114 54.3537 225.646 54.0355 225.017C53.7211 224.384 53.5639 223.585 53.5639 222.619C53.5639 221.631 53.7249 220.805 54.0469 220.142C54.3688 219.479 54.7969 218.983 55.331 218.653C55.8688 218.324 56.4579 218.159 57.098 218.159C57.5866 218.159 57.9957 218.242 58.3253 218.409C58.6548 218.572 58.92 218.777 59.1207 219.023C59.3253 219.265 59.4825 219.504 59.5923 219.739H59.6832V218.273H62.0866V227.085C62.0866 227.828 61.9048 228.449 61.5412 228.949C61.1776 229.449 60.6738 229.824 60.0298 230.074C59.3897 230.328 58.6529 230.455 57.8196 230.455ZM57.8707 225.057C58.2609 225.057 58.5904 224.96 58.8594 224.767C59.1321 224.57 59.3404 224.29 59.4844 223.926C59.6321 223.559 59.706 223.119 59.706 222.608C59.706 222.097 59.634 221.653 59.4901 221.278C59.3461 220.9 59.1378 220.606 58.8651 220.398C58.5923 220.189 58.2609 220.085 57.8707 220.085C57.473 220.085 57.1378 220.193 56.8651 220.409C56.5923 220.621 56.3859 220.917 56.2457 221.295C56.1056 221.674 56.0355 222.112 56.0355 222.608C56.0355 223.112 56.1056 223.547 56.2457 223.915C56.3897 224.278 56.5961 224.561 56.8651 224.761C57.1378 224.958 57.473 225.057 57.8707 225.057ZM64.0128 227V218.273H66.4332V227H64.0128ZM65.2287 217.148C64.8688 217.148 64.5601 217.028 64.3026 216.79C64.0488 216.547 63.9219 216.258 63.9219 215.92C63.9219 215.587 64.0488 215.301 64.3026 215.062C64.5601 214.82 64.8688 214.699 65.2287 214.699C65.5885 214.699 65.8954 214.82 66.1491 215.062C66.4067 215.301 66.5355 215.587 66.5355 215.92C66.5355 216.258 66.4067 216.547 66.1491 216.79C65.8954 217.028 65.5885 217.148 65.2287 217.148ZM75.6335 220.761L73.4176 220.898C73.3797 220.708 73.2983 220.538 73.1733 220.386C73.0483 220.231 72.8835 220.108 72.679 220.017C72.4782 219.922 72.2377 219.875 71.9574 219.875C71.5824 219.875 71.2661 219.955 71.0085 220.114C70.7509 220.269 70.6222 220.477 70.6222 220.739C70.6222 220.947 70.7055 221.123 70.8722 221.267C71.0388 221.411 71.3248 221.527 71.7301 221.614L73.3097 221.932C74.1581 222.106 74.7907 222.386 75.2074 222.773C75.6241 223.159 75.8324 223.667 75.8324 224.295C75.8324 224.867 75.6638 225.369 75.3267 225.801C74.9934 226.233 74.535 226.57 73.9517 226.812C73.3722 227.051 72.7036 227.17 71.946 227.17C70.7907 227.17 69.8703 226.93 69.1847 226.449C68.5028 225.964 68.1032 225.305 67.9858 224.472L70.3665 224.347C70.4384 224.699 70.6127 224.968 70.8892 225.153C71.1657 225.335 71.5199 225.426 71.9517 225.426C72.3759 225.426 72.7169 225.345 72.9744 225.182C73.2358 225.015 73.3684 224.801 73.3722 224.54C73.3684 224.32 73.2756 224.14 73.0938 224C72.9119 223.856 72.6316 223.746 72.2528 223.67L70.7415 223.369C69.8892 223.199 69.2547 222.903 68.8381 222.483C68.4252 222.062 68.2188 221.527 68.2188 220.875C68.2188 220.314 68.3703 219.831 68.6733 219.426C68.9801 219.021 69.41 218.708 69.9631 218.489C70.5199 218.269 71.1714 218.159 71.9176 218.159C73.0199 218.159 73.8873 218.392 74.5199 218.858C75.1563 219.324 75.5275 219.958 75.6335 220.761ZM81.9986 218.273V220.091H76.7429V218.273H81.9986ZM77.9361 216.182H80.3565V224.318C80.3565 224.542 80.3906 224.716 80.4588 224.841C80.527 224.962 80.6217 225.047 80.7429 225.097C80.8679 225.146 81.0118 225.17 81.1747 225.17C81.2884 225.17 81.402 225.161 81.5156 225.142C81.6293 225.119 81.7164 225.102 81.777 225.091L82.1577 226.892C82.0365 226.93 81.866 226.973 81.6463 227.023C81.4266 227.076 81.1596 227.108 80.8452 227.119C80.2618 227.142 79.7505 227.064 79.3111 226.886C78.8755 226.708 78.5365 226.432 78.294 226.057C78.0516 225.682 77.9323 225.208 77.9361 224.636V216.182ZM87.4588 227.17C86.5611 227.17 85.7884 226.989 85.1406 226.625C84.4967 226.258 84.0005 225.739 83.652 225.068C83.3035 224.394 83.1293 223.597 83.1293 222.676C83.1293 221.778 83.3035 220.991 83.652 220.312C84.0005 219.634 84.491 219.106 85.1236 218.727C85.7599 218.348 86.5062 218.159 87.3622 218.159C87.938 218.159 88.474 218.252 88.9702 218.438C89.4702 218.619 89.9058 218.894 90.277 219.261C90.652 219.629 90.9437 220.091 91.152 220.648C91.3603 221.201 91.4645 221.848 91.4645 222.591V223.256H84.0952V221.756H89.1861C89.1861 221.407 89.1103 221.098 88.9588 220.83C88.8073 220.561 88.5971 220.35 88.3281 220.199C88.063 220.044 87.7543 219.966 87.402 219.966C87.0346 219.966 86.7088 220.051 86.4247 220.222C86.1444 220.388 85.9247 220.614 85.7656 220.898C85.6065 221.178 85.5251 221.491 85.5213 221.835V223.261C85.5213 223.693 85.6009 224.066 85.7599 224.381C85.9228 224.695 86.152 224.938 86.4474 225.108C86.7429 225.278 87.0933 225.364 87.4986 225.364C87.7675 225.364 88.0137 225.326 88.2372 225.25C88.4607 225.174 88.652 225.061 88.8111 224.909C88.9702 224.758 89.0914 224.572 89.1747 224.352L91.4134 224.5C91.2997 225.038 91.0668 225.508 90.7145 225.909C90.366 226.307 89.9152 226.617 89.3622 226.841C88.813 227.061 88.1785 227.17 87.4588 227.17ZM93.044 227V218.273H95.3906V219.795H95.4815C95.6406 219.254 95.9077 218.845 96.2827 218.568C96.6577 218.288 97.0895 218.148 97.5781 218.148C97.6993 218.148 97.83 218.155 97.9702 218.17C98.1103 218.186 98.2334 218.206 98.3395 218.233V220.381C98.2259 220.347 98.0687 220.316 97.8679 220.29C97.6671 220.263 97.4834 220.25 97.3168 220.25C96.9607 220.25 96.6425 220.328 96.3622 220.483C96.0857 220.634 95.866 220.847 95.7031 221.119C95.544 221.392 95.4645 221.706 95.4645 222.062V227H93.044Z" fill="white"/>
<path d="M18.6307 162L14.3409 147.455H18.7443L20.733 156.403H20.8466L23.2045 147.455H26.6705L29.0284 156.432H29.142L31.1307 147.455H35.5341L31.2443 162H27.4659L24.9943 153.875H24.8807L22.4091 162H18.6307ZM40.8271 162.199C39.6623 162.199 38.6585 161.976 37.8157 161.531C36.9776 161.081 36.3313 160.437 35.8768 159.599C35.427 158.757 35.2021 157.748 35.2021 156.574C35.2021 155.447 35.4293 154.462 35.8839 153.619C36.3384 152.777 36.98 152.121 37.8086 151.652C38.6372 151.183 39.6149 150.949 40.7418 150.949C41.5657 150.949 42.3114 151.077 42.979 151.332C43.6467 151.588 44.2172 151.96 44.6907 152.447C45.1642 152.93 45.5288 153.518 45.7844 154.209C46.0401 154.9 46.168 155.679 46.168 156.545V157.455H36.4237V155.295H42.56C42.5553 154.983 42.4748 154.708 42.3185 154.472C42.167 154.23 41.9611 154.043 41.7006 153.911C41.445 153.773 41.1538 153.705 40.8271 153.705C40.5098 153.705 40.2186 153.773 39.9535 153.911C39.6883 154.043 39.4753 154.228 39.3143 154.464C39.158 154.701 39.0752 154.978 39.0657 155.295V157.625C39.0657 157.975 39.1391 158.288 39.2859 158.562C39.4326 158.837 39.6433 159.053 39.918 159.209C40.1926 159.365 40.524 159.443 40.9123 159.443C41.1822 159.443 41.4284 159.405 41.6509 159.33C41.8782 159.254 42.0723 159.145 42.2333 159.003C42.3943 158.856 42.5127 158.681 42.5884 158.477H46.168C46.0449 159.235 45.7537 159.893 45.2944 160.452C44.8351 161.006 44.2267 161.437 43.4691 161.744C42.7163 162.047 41.8356 162.199 40.8271 162.199ZM52.995 162.199C51.8303 162.199 50.8265 161.976 49.9837 161.531C49.1456 161.081 48.4993 160.437 48.0447 159.599C47.5949 158.757 47.37 157.748 47.37 156.574C47.37 155.447 47.5973 154.462 48.0518 153.619C48.5064 152.777 49.148 152.121 49.9766 151.652C50.8052 151.183 51.7829 150.949 52.9098 150.949C53.7337 150.949 54.4794 151.077 55.147 151.332C55.8146 151.588 56.3852 151.96 56.8587 152.447C57.3321 152.93 57.6967 153.518 57.9524 154.209C58.2081 154.9 58.3359 155.679 58.3359 156.545V157.455H48.5916V155.295H54.728C54.7232 154.983 54.6428 154.708 54.4865 154.472C54.335 154.23 54.129 154.043 53.8686 153.911C53.6129 153.773 53.3217 153.705 52.995 153.705C52.6778 153.705 52.3866 153.773 52.1214 153.911C51.8563 154.043 51.6432 154.228 51.4822 154.464C51.326 154.701 51.2431 154.978 51.2337 155.295V157.625C51.2337 157.975 51.3071 158.288 51.4538 158.562C51.6006 158.837 51.8113 159.053 52.0859 159.209C52.3606 159.365 52.692 159.443 53.0803 159.443C53.3501 159.443 53.5964 159.405 53.8189 159.33C54.0462 159.254 54.2403 159.145 54.4013 159.003C54.5623 158.856 54.6806 158.681 54.7564 158.477H58.3359C58.2128 159.235 57.9216 159.893 57.4624 160.452C57.0031 161.006 56.3946 161.437 55.6371 161.744C54.8842 162.047 54.0036 162.199 52.995 162.199ZM63.4585 159.415L63.4869 154.756H63.9982L66.6403 151.091H71.0437L66.6119 156.801H65.5039L63.4585 159.415ZM59.9357 162V147.455H63.8562V162H59.9357ZM66.6687 162L64.1687 157.682L66.7255 154.898L71.1573 162H66.6687ZM75.9851 147.455V162H72.0646V147.455H75.9851ZM80.369 166.091C79.9192 166.091 79.4906 166.055 79.0835 165.984C78.6763 165.918 78.3188 165.826 78.011 165.707L78.8633 162.923C79.1853 163.037 79.4788 163.11 79.744 163.143C80.0138 163.177 80.2435 163.158 80.4329 163.087C80.627 163.016 80.7667 162.881 80.8519 162.682L80.9371 162.483L77.1019 151.091H81.1928L82.9542 158.648H83.0678L84.8576 151.091H88.9769L84.9996 162.909C84.8008 163.51 84.512 164.05 84.1332 164.528C83.7591 165.011 83.2667 165.393 82.6559 165.672C82.0451 165.951 81.2828 166.091 80.369 166.091ZM107.599 152.909H103.593C103.565 152.578 103.489 152.277 103.366 152.007C103.248 151.737 103.082 151.505 102.869 151.311C102.661 151.112 102.407 150.961 102.109 150.857C101.811 150.748 101.472 150.693 101.093 150.693C100.431 150.693 99.8694 150.854 99.4102 151.176C98.9556 151.498 98.61 151.96 98.3732 152.561C98.1412 153.162 98.0252 153.884 98.0252 154.727C98.0252 155.617 98.1436 156.363 98.3803 156.964C98.6218 157.561 98.9698 158.011 99.4244 158.314C99.8789 158.612 100.426 158.761 101.065 158.761C101.43 158.761 101.756 158.716 102.045 158.626C102.334 158.532 102.585 158.397 102.798 158.222C103.011 158.046 103.184 157.836 103.316 157.589C103.454 157.339 103.546 157.057 103.593 156.744L107.599 156.773C107.552 157.388 107.379 158.016 107.081 158.655C106.782 159.289 106.359 159.876 105.809 160.416C105.265 160.951 104.59 161.382 103.785 161.709C102.98 162.036 102.045 162.199 100.98 162.199C99.6445 162.199 98.4466 161.912 97.386 161.339C96.3301 160.767 95.4944 159.924 94.8789 158.811C94.2681 157.698 93.9627 156.337 93.9627 154.727C93.9627 153.108 94.2752 151.744 94.9002 150.636C95.5252 149.524 96.368 148.683 97.4286 148.115C98.4892 147.542 99.6729 147.256 100.98 147.256C101.898 147.256 102.743 147.381 103.515 147.632C104.287 147.883 104.964 148.25 105.547 148.733C106.129 149.211 106.598 149.801 106.953 150.501C107.308 151.202 107.523 152.005 107.599 152.909ZM114.703 162.199C113.519 162.199 112.506 161.964 111.663 161.496C110.821 161.022 110.174 160.364 109.724 159.521C109.275 158.674 109.05 157.691 109.05 156.574C109.05 155.456 109.275 154.476 109.724 153.634C110.174 152.786 110.821 152.128 111.663 151.659C112.506 151.186 113.519 150.949 114.703 150.949C115.887 150.949 116.9 151.186 117.743 151.659C118.586 152.128 119.232 152.786 119.682 153.634C120.132 154.476 120.357 155.456 120.357 156.574C120.357 157.691 120.132 158.674 119.682 159.521C119.232 160.364 118.586 161.022 117.743 161.496C116.9 161.964 115.887 162.199 114.703 162.199ZM114.732 159.301C115.063 159.301 115.349 159.19 115.591 158.967C115.832 158.745 116.019 158.428 116.152 158.016C116.285 157.604 116.351 157.114 116.351 156.545C116.351 155.973 116.285 155.482 116.152 155.075C116.019 154.663 115.832 154.346 115.591 154.124C115.349 153.901 115.063 153.79 114.732 153.79C114.381 153.79 114.08 153.901 113.83 154.124C113.579 154.346 113.387 154.663 113.254 155.075C113.122 155.482 113.055 155.973 113.055 156.545C113.055 157.114 113.122 157.604 113.254 158.016C113.387 158.428 113.579 158.745 113.83 158.967C114.08 159.19 114.381 159.301 114.732 159.301ZM125.868 155.864V162H121.947V151.091H125.669V153.165H125.783C126.019 152.473 126.436 151.931 127.033 151.538C127.634 151.145 128.335 150.949 129.135 150.949C129.907 150.949 130.577 151.126 131.145 151.482C131.718 151.832 132.161 152.315 132.473 152.93C132.79 153.546 132.946 154.249 132.942 155.04V162H129.021V155.864C129.026 155.324 128.889 154.9 128.609 154.592C128.335 154.285 127.951 154.131 127.459 154.131C127.137 154.131 126.855 154.202 126.614 154.344C126.377 154.481 126.195 154.68 126.067 154.94C125.939 155.196 125.873 155.504 125.868 155.864ZM141.383 151.091V153.932H134.195V151.091H141.383ZM135.587 148.477H139.508V158.491C139.508 158.643 139.534 158.771 139.586 158.875C139.638 158.974 139.719 159.05 139.827 159.102C139.936 159.15 140.076 159.173 140.246 159.173C140.365 159.173 140.502 159.159 140.658 159.131C140.819 159.102 140.938 159.079 141.013 159.06L141.582 161.815C141.406 161.867 141.156 161.931 140.829 162.007C140.507 162.083 140.123 162.133 139.678 162.156C138.779 162.204 138.023 162.111 137.413 161.879C136.802 161.643 136.343 161.271 136.035 160.764C135.727 160.258 135.578 159.623 135.587 158.861V148.477ZM148.093 162.199C146.928 162.199 145.924 161.976 145.081 161.531C144.243 161.081 143.597 160.437 143.142 159.599C142.693 158.757 142.468 157.748 142.468 156.574C142.468 155.447 142.695 154.462 143.15 153.619C143.604 152.777 144.246 152.121 145.074 151.652C145.903 151.183 146.881 150.949 148.007 150.949C148.831 150.949 149.577 151.077 150.245 151.332C150.912 151.588 151.483 151.96 151.956 152.447C152.43 152.93 152.794 153.518 153.05 154.209C153.306 154.9 153.434 155.679 153.434 156.545V157.455H143.689V155.295H149.826C149.821 154.983 149.74 154.708 149.584 154.472C149.433 154.23 149.227 154.043 148.966 153.911C148.711 153.773 148.419 153.705 148.093 153.705C147.775 153.705 147.484 153.773 147.219 153.911C146.954 154.043 146.741 154.228 146.58 154.464C146.424 154.701 146.341 154.978 146.331 155.295V157.625C146.331 157.975 146.405 158.288 146.551 158.562C146.698 158.837 146.909 159.053 147.184 159.209C147.458 159.365 147.79 159.443 148.178 159.443C148.448 159.443 148.694 159.405 148.917 159.33C149.144 159.254 149.338 159.145 149.499 159.003C149.66 158.856 149.778 158.681 149.854 158.477H153.434C153.31 159.235 153.019 159.893 152.56 160.452C152.101 161.006 151.492 161.437 150.735 161.744C149.982 162.047 149.101 162.199 148.093 162.199ZM165.005 154.642H161.397C161.378 154.42 161.3 154.228 161.163 154.067C161.025 153.906 160.848 153.783 160.63 153.697C160.417 153.607 160.18 153.562 159.92 153.562C159.584 153.562 159.295 153.624 159.053 153.747C158.812 153.87 158.693 154.045 158.698 154.273C158.693 154.434 158.762 154.583 158.904 154.72C159.051 154.857 159.333 154.964 159.749 155.04L161.965 155.438C163.083 155.641 163.914 155.984 164.458 156.467C165.007 156.946 165.284 157.587 165.289 158.392C165.284 159.169 165.052 159.843 164.593 160.416C164.138 160.984 163.516 161.425 162.725 161.737C161.939 162.045 161.042 162.199 160.033 162.199C158.367 162.199 157.062 161.858 156.12 161.176C155.183 160.494 154.659 159.595 154.55 158.477H158.442C158.495 158.823 158.665 159.09 158.954 159.28C159.247 159.464 159.617 159.557 160.062 159.557C160.422 159.557 160.718 159.495 160.95 159.372C161.186 159.249 161.307 159.074 161.312 158.847C161.307 158.638 161.203 158.473 160.999 158.349C160.8 158.226 160.488 158.127 160.062 158.051L158.13 157.71C157.017 157.516 156.184 157.147 155.63 156.602C155.076 156.058 154.801 155.357 154.806 154.5C154.801 153.742 155 153.101 155.403 152.575C155.81 152.045 156.39 151.643 157.143 151.368C157.9 151.089 158.798 150.949 159.835 150.949C161.411 150.949 162.654 151.276 163.563 151.929C164.477 152.582 164.958 153.487 165.005 154.642ZM173.297 151.091V153.932H166.109V151.091H173.297ZM167.501 148.477H171.422V158.491C171.422 158.643 171.448 158.771 171.5 158.875C171.552 158.974 171.633 159.05 171.741 159.102C171.85 159.15 171.99 159.173 172.161 159.173C172.279 159.173 172.416 159.159 172.572 159.131C172.733 159.102 172.852 159.079 172.928 159.06L173.496 161.815C173.321 161.867 173.07 161.931 172.743 162.007C172.421 162.083 172.037 162.133 171.592 162.156C170.693 162.204 169.938 162.111 169.327 161.879C168.716 161.643 168.257 161.271 167.949 160.764C167.641 160.258 167.492 159.623 167.501 158.861V148.477ZM186.04 153.25V156.205H179.222V153.25H186.04ZM192.329 162V159.159L197.755 154.67C198.115 154.372 198.423 154.093 198.679 153.832C198.939 153.567 199.138 153.295 199.275 153.016C199.417 152.736 199.488 152.426 199.488 152.085C199.488 151.711 199.408 151.392 199.247 151.126C199.091 150.861 198.873 150.658 198.593 150.516C198.314 150.369 197.992 150.295 197.627 150.295C197.263 150.295 196.941 150.369 196.662 150.516C196.387 150.662 196.174 150.878 196.022 151.162C195.871 151.446 195.795 151.792 195.795 152.199H192.045C192.045 151.176 192.275 150.295 192.734 149.557C193.193 148.818 193.842 148.25 194.68 147.852C195.518 147.455 196.501 147.256 197.627 147.256C198.792 147.256 199.801 147.443 200.653 147.817C201.51 148.186 202.171 148.707 202.635 149.379C203.103 150.052 203.338 150.84 203.338 151.744C203.338 152.303 203.222 152.859 202.99 153.413C202.758 153.963 202.341 154.571 201.74 155.239C201.138 155.906 200.284 156.702 199.176 157.625L197.812 158.761V158.847H203.494V162H192.329Z" fill="white"/>
<path d="M18.375 189.139C17.6259 189.139 16.9879 188.935 16.4609 188.528C15.9339 188.117 15.5313 187.522 15.2528 186.743C14.9744 185.961 14.8352 185.016 14.8352 183.909C14.8352 182.809 14.9744 181.869 15.2528 181.09C15.5346 180.308 15.9389 179.711 16.4659 179.3C16.9962 178.886 17.6326 178.679 18.375 178.679C19.1174 178.679 19.7521 178.886 20.2791 179.3C20.8094 179.711 21.2138 180.308 21.4922 181.09C21.7739 181.869 21.9148 182.809 21.9148 183.909C21.9148 185.016 21.7756 185.961 21.4972 186.743C21.2188 187.522 20.8161 188.117 20.2891 188.528C19.7621 188.935 19.1241 189.139 18.375 189.139ZM18.375 188.045C19.1174 188.045 19.6941 187.687 20.1051 186.972C20.5161 186.256 20.7216 185.235 20.7216 183.909C20.7216 183.027 20.6271 182.277 20.4382 181.657C20.2526 181.037 19.9841 180.565 19.6328 180.24C19.2848 179.915 18.8655 179.753 18.375 179.753C17.6392 179.753 17.0642 180.116 16.6499 180.842C16.2356 181.564 16.0284 182.587 16.0284 183.909C16.0284 184.791 16.1212 185.54 16.3068 186.156C16.4924 186.773 16.7592 187.242 17.1072 187.563C17.4586 187.885 17.8812 188.045 18.375 188.045ZM23.804 189V188.105L27.1648 184.426C27.5592 183.995 27.884 183.621 28.1392 183.303C28.3944 182.981 28.5833 182.679 28.706 182.398C28.8319 182.113 28.8949 181.814 28.8949 181.503C28.8949 181.145 28.8087 180.835 28.6364 180.573C28.4673 180.311 28.2353 180.109 27.9403 179.967C27.6454 179.824 27.3139 179.753 26.946 179.753C26.5549 179.753 26.2135 179.834 25.9219 179.996C25.6335 180.156 25.4098 180.379 25.2507 180.668C25.0949 180.956 25.017 181.294 25.017 181.682H23.8438C23.8438 181.085 23.9813 180.562 24.2564 180.111C24.5315 179.66 24.906 179.309 25.38 179.057C25.8572 178.805 26.3925 178.679 26.9858 178.679C27.5824 178.679 28.111 178.805 28.5717 179.057C29.0324 179.309 29.3937 179.648 29.6555 180.076C29.9174 180.504 30.0483 180.979 30.0483 181.503C30.0483 181.877 29.9804 182.244 29.8445 182.602C29.7119 182.956 29.4799 183.352 29.1484 183.79C28.8203 184.224 28.3646 184.754 27.7812 185.381L25.4943 187.827V187.906H30.2273V189H23.804ZM33.4737 184.406V189H32.3004V181.364H33.4339V182.557H33.5334C33.7124 182.169 33.9841 181.857 34.3487 181.622C34.7133 181.384 35.1839 181.264 35.7607 181.264C36.2777 181.264 36.7301 181.37 37.1179 181.582C37.5057 181.791 37.8073 182.109 38.0227 182.537C38.2382 182.961 38.3459 183.498 38.3459 184.148V189H37.1726V184.227C37.1726 183.627 37.0168 183.16 36.7053 182.825C36.3937 182.487 35.9661 182.318 35.4226 182.318C35.0481 182.318 34.7133 182.399 34.4183 182.562C34.1267 182.724 33.8963 182.961 33.7273 183.273C33.5582 183.584 33.4737 183.962 33.4737 184.406ZM43.3734 189.159C42.737 189.159 42.1752 188.998 41.688 188.677C41.2008 188.352 40.8197 187.895 40.5446 187.305C40.2695 186.711 40.1319 186.01 40.1319 185.202C40.1319 184.4 40.2695 183.704 40.5446 183.114C40.8197 182.524 41.2025 182.068 41.693 181.746C42.1835 181.425 42.7503 181.264 43.3933 181.264C43.8904 181.264 44.2832 181.347 44.5716 181.513C44.8632 181.675 45.0853 181.861 45.2377 182.07C45.3935 182.275 45.5145 182.444 45.6007 182.577H45.7001V178.818H46.8734V189H45.7399V187.827H45.6007C45.5145 187.966 45.3919 188.142 45.2328 188.354C45.0737 188.562 44.8467 188.75 44.5517 188.915C44.2567 189.078 43.8639 189.159 43.3734 189.159ZM43.5325 188.105C44.0031 188.105 44.4009 187.982 44.7257 187.737C45.0505 187.489 45.2974 187.146 45.4664 186.708C45.6355 186.267 45.72 185.759 45.72 185.182C45.72 184.612 45.6371 184.113 45.4714 183.685C45.3057 183.254 45.0604 182.92 44.7356 182.681C44.4108 182.439 44.0098 182.318 43.5325 182.318C43.0353 182.318 42.621 182.446 42.2896 182.701C41.9615 182.953 41.7145 183.296 41.5488 183.73C41.3864 184.161 41.3052 184.645 41.3052 185.182C41.3052 185.725 41.3881 186.219 41.5538 186.663C41.7228 187.104 41.9714 187.455 42.2995 187.717C42.631 187.976 43.042 188.105 43.5325 188.105ZM57.1795 178.818H58.4125V186.097C58.4125 186.746 58.2931 187.298 58.0545 187.752C57.8159 188.206 57.4795 188.551 57.0453 188.786C56.6111 189.022 56.099 189.139 55.5091 189.139C54.9522 189.139 54.4567 189.038 54.0225 188.836C53.5884 188.63 53.247 188.339 52.9984 187.961C52.7498 187.583 52.6255 187.134 52.6255 186.614H53.8386C53.8386 186.902 53.9099 187.154 54.0524 187.369C54.1982 187.581 54.3971 187.747 54.649 187.866C54.9009 187.986 55.1876 188.045 55.5091 188.045C55.8637 188.045 56.1653 187.971 56.4139 187.822C56.6625 187.673 56.8514 187.454 56.9806 187.165C57.1132 186.874 57.1795 186.518 57.1795 186.097V178.818ZM62.9714 189.179C62.4875 189.179 62.0484 189.088 61.6539 188.906C61.2595 188.72 60.9463 188.453 60.7143 188.105C60.4823 187.754 60.3663 187.33 60.3663 186.832C60.3663 186.395 60.4525 186.04 60.6248 185.768C60.7972 185.493 61.0275 185.278 61.3159 185.122C61.6042 184.966 61.9224 184.85 62.2704 184.774C62.6217 184.695 62.9747 184.632 63.3294 184.585C63.7934 184.526 64.1696 184.481 64.4579 184.451C64.7496 184.418 64.9617 184.363 65.0943 184.287C65.2302 184.211 65.2981 184.078 65.2981 183.889V183.849C65.2981 183.359 65.1639 182.978 64.8954 182.706C64.6303 182.434 64.2276 182.298 63.6873 182.298C63.1272 182.298 62.688 182.421 62.3699 182.666C62.0517 182.911 61.8279 183.173 61.6987 183.452L60.585 183.054C60.7839 182.59 61.0491 182.229 61.3805 181.97C61.7153 181.708 62.0798 181.526 62.4743 181.423C62.872 181.317 63.2631 181.264 63.6475 181.264C63.8928 181.264 64.1745 181.294 64.4927 181.354C64.8142 181.41 65.1241 181.528 65.4224 181.707C65.724 181.886 65.9743 182.156 66.1731 182.517C66.372 182.878 66.4714 183.362 66.4714 183.969V189H65.2981V187.966H65.2385C65.1589 188.132 65.0263 188.309 64.8407 188.498C64.6551 188.687 64.4082 188.848 64.1 188.98C63.7917 189.113 63.4155 189.179 62.9714 189.179ZM63.1504 188.125C63.6144 188.125 64.0055 188.034 64.3237 187.852C64.6452 187.669 64.8871 187.434 65.0495 187.146C65.2153 186.857 65.2981 186.554 65.2981 186.236V185.162C65.2484 185.222 65.139 185.276 64.97 185.326C64.8043 185.372 64.612 185.414 64.3933 185.45C64.1779 185.483 63.9674 185.513 63.7619 185.54C63.5597 185.563 63.3957 185.583 63.2697 185.599C62.9648 185.639 62.6797 185.704 62.4146 185.793C62.1528 185.879 61.9406 186.01 61.7782 186.186C61.6191 186.358 61.5396 186.594 61.5396 186.892C61.5396 187.3 61.6904 187.608 61.992 187.817C62.2969 188.022 62.6831 188.125 63.1504 188.125ZM69.7862 184.406V189H68.6129V181.364H69.7464V182.557H69.8459C70.0249 182.169 70.2966 181.857 70.6612 181.622C71.0258 181.384 71.4964 181.264 72.0732 181.264C72.5902 181.264 73.0426 181.37 73.4304 181.582C73.8182 181.791 74.1198 182.109 74.3352 182.537C74.5507 182.961 74.6584 183.498 74.6584 184.148V189H73.4851V184.227C73.4851 183.627 73.3293 183.16 73.0178 182.825C72.7062 182.487 72.2786 182.318 71.7351 182.318C71.3606 182.318 71.0258 182.399 70.7308 182.562C70.4392 182.724 70.2088 182.961 70.0398 183.273C69.8707 183.584 69.7862 183.962 69.7862 184.406ZM80.72 189V188.105L84.0808 184.426C84.4752 183.995 84.8 183.621 85.0552 183.303C85.3104 182.981 85.4993 182.679 85.622 182.398C85.7479 182.113 85.8109 181.814 85.8109 181.503C85.8109 181.145 85.7247 180.835 85.5524 180.573C85.3833 180.311 85.1513 180.109 84.8564 179.967C84.5614 179.824 84.2299 179.753 83.862 179.753C83.4709 179.753 83.1296 179.834 82.8379 179.996C82.5495 180.156 82.3258 180.379 82.1667 180.668C82.0109 180.956 81.9331 181.294 81.9331 181.682H80.7598C80.7598 181.085 80.8973 180.562 81.1724 180.111C81.4475 179.66 81.822 179.309 82.296 179.057C82.7733 178.805 83.3085 178.679 83.9018 178.679C84.4984 178.679 85.027 178.805 85.4877 179.057C85.9484 179.309 86.3097 179.648 86.5716 180.076C86.8334 180.504 86.9643 180.979 86.9643 181.503C86.9643 181.877 86.8964 182.244 86.7605 182.602C86.6279 182.956 86.3959 183.352 86.0645 183.79C85.7363 184.224 85.2806 184.754 84.6973 185.381L82.4103 187.827V187.906H87.1433V189H80.72ZM92.5176 189.139C91.7685 189.139 91.1305 188.935 90.6035 188.528C90.0765 188.117 89.6738 187.522 89.3954 186.743C89.117 185.961 88.9778 185.016 88.9778 183.909C88.9778 182.809 89.117 181.869 89.3954 181.09C89.6771 180.308 90.0815 179.711 90.6085 179.3C91.1388 178.886 91.7752 178.679 92.5176 178.679C93.26 178.679 93.8947 178.886 94.4217 179.3C94.952 179.711 95.3564 180.308 95.6348 181.09C95.9165 181.869 96.0574 182.809 96.0574 183.909C96.0574 185.016 95.9181 185.961 95.6397 186.743C95.3613 187.522 94.9586 188.117 94.4316 188.528C93.9047 188.935 93.2666 189.139 92.5176 189.139ZM92.5176 188.045C93.26 188.045 93.8367 187.687 94.2477 186.972C94.6587 186.256 94.8642 185.235 94.8642 183.909C94.8642 183.027 94.7697 182.277 94.5808 181.657C94.3952 181.037 94.1267 180.565 93.7754 180.24C93.4274 179.915 93.0081 179.753 92.5176 179.753C91.7818 179.753 91.2067 180.116 90.7924 180.842C90.3781 181.564 90.171 182.587 90.171 183.909C90.171 184.791 90.2638 185.54 90.4494 186.156C90.635 186.773 90.9018 187.242 91.2498 187.563C91.6011 187.885 92.0237 188.045 92.5176 188.045ZM97.9466 189V188.105L101.307 184.426C101.702 183.995 102.027 183.621 102.282 183.303C102.537 182.981 102.726 182.679 102.849 182.398C102.974 182.113 103.037 181.814 103.037 181.503C103.037 181.145 102.951 180.835 102.779 180.573C102.61 180.311 102.378 180.109 102.083 179.967C101.788 179.824 101.456 179.753 101.089 179.753C100.698 179.753 100.356 179.834 100.064 179.996C99.7761 180.156 99.5524 180.379 99.3933 180.668C99.2375 180.956 99.1596 181.294 99.1596 181.682H97.9863C97.9863 181.085 98.1239 180.562 98.399 180.111C98.6741 179.66 99.0486 179.309 99.5225 179.057C99.9998 178.805 100.535 178.679 101.128 178.679C101.725 178.679 102.254 178.805 102.714 179.057C103.175 179.309 103.536 179.648 103.798 180.076C104.06 180.504 104.191 180.979 104.191 181.503C104.191 181.877 104.123 182.244 103.987 182.602C103.854 182.956 103.622 183.352 103.291 183.79C102.963 184.224 102.507 184.754 101.924 185.381L99.6369 187.827V187.906H104.37V189H97.9466ZM105.966 186.912V185.898L110.44 178.818H111.176V180.389H110.679L107.298 185.739V185.818H113.324V186.912H105.966ZM110.758 189V186.604V186.131V178.818H111.932V189H110.758ZM122.386 189.139C121.703 189.139 121.1 189.018 120.576 188.776C120.056 188.531 119.65 188.195 119.358 187.767C119.066 187.336 118.922 186.846 118.925 186.295C118.922 185.865 119.007 185.467 119.179 185.102C119.351 184.734 119.587 184.428 119.885 184.183C120.187 183.934 120.523 183.777 120.894 183.71V183.651C120.407 183.525 120.019 183.251 119.731 182.83C119.442 182.406 119.3 181.924 119.303 181.384C119.3 180.866 119.431 180.404 119.696 179.996C119.961 179.589 120.326 179.267 120.79 179.032C121.257 178.797 121.789 178.679 122.386 178.679C122.976 178.679 123.503 178.797 123.967 179.032C124.431 179.267 124.795 179.589 125.06 179.996C125.329 180.404 125.465 180.866 125.468 181.384C125.465 181.924 125.317 182.406 125.026 182.83C124.737 183.251 124.354 183.525 123.877 183.651V183.71C124.245 183.777 124.576 183.934 124.871 184.183C125.166 184.428 125.402 184.734 125.577 185.102C125.753 185.467 125.843 185.865 125.846 186.295C125.843 186.846 125.693 187.336 125.398 187.767C125.107 188.195 124.701 188.531 124.18 188.776C123.663 189.018 123.065 189.139 122.386 189.139ZM122.386 188.045C122.846 188.045 123.244 187.971 123.579 187.822C123.914 187.673 124.172 187.462 124.354 187.19C124.537 186.919 124.629 186.6 124.633 186.236C124.629 185.851 124.53 185.512 124.335 185.217C124.139 184.922 123.872 184.69 123.534 184.521C123.199 184.352 122.817 184.267 122.386 184.267C121.951 184.267 121.564 184.352 121.222 184.521C120.884 184.69 120.617 184.922 120.422 185.217C120.23 185.512 120.135 185.851 120.138 186.236C120.135 186.6 120.223 186.919 120.402 187.19C120.584 187.462 120.844 187.673 121.183 187.822C121.521 187.971 121.922 188.045 122.386 188.045ZM122.386 183.213C122.75 183.213 123.073 183.14 123.355 182.994C123.64 182.848 123.864 182.645 124.026 182.383C124.189 182.121 124.272 181.814 124.275 181.463C124.272 181.118 124.19 180.818 124.031 180.563C123.872 180.305 123.652 180.106 123.37 179.967C123.088 179.824 122.76 179.753 122.386 179.753C122.004 179.753 121.671 179.824 121.386 179.967C121.101 180.106 120.881 180.305 120.725 180.563C120.569 180.818 120.493 181.118 120.496 181.463C120.493 181.814 120.571 182.121 120.73 182.383C120.893 182.645 121.116 182.848 121.401 182.994C121.686 183.14 122.014 183.213 122.386 183.213ZM128.626 187.697C128.381 187.697 128.171 187.61 127.995 187.434C127.819 187.258 127.731 187.048 127.731 186.803C127.731 186.557 127.819 186.347 127.995 186.171C128.171 185.996 128.381 185.908 128.626 185.908C128.872 185.908 129.082 185.996 129.258 186.171C129.433 186.347 129.521 186.557 129.521 186.803C129.521 186.965 129.48 187.114 129.397 187.25C129.317 187.386 129.21 187.495 129.074 187.578C128.941 187.658 128.792 187.697 128.626 187.697ZM128.626 182.547C128.381 182.547 128.171 182.459 127.995 182.283C127.819 182.108 127.731 181.897 127.731 181.652C127.731 181.407 127.819 181.196 127.995 181.021C128.171 180.845 128.381 180.757 128.626 180.757C128.872 180.757 129.082 180.845 129.258 181.021C129.433 181.196 129.521 181.407 129.521 181.652C129.521 181.814 129.48 181.964 129.397 182.099C129.317 182.235 129.21 182.345 129.074 182.428C128.941 182.507 128.792 182.547 128.626 182.547ZM134.928 189.139C134.179 189.139 133.541 188.935 133.014 188.528C132.487 188.117 132.084 187.522 131.806 186.743C131.527 185.961 131.388 185.016 131.388 183.909C131.388 182.809 131.527 181.869 131.806 181.09C132.087 180.308 132.492 179.711 133.019 179.3C133.549 178.886 134.185 178.679 134.928 178.679C135.67 178.679 136.305 178.886 136.832 179.3C137.362 179.711 137.767 180.308 138.045 181.09C138.327 181.869 138.468 182.809 138.468 183.909C138.468 185.016 138.328 185.961 138.05 186.743C137.771 187.522 137.369 188.117 136.842 188.528C136.315 188.935 135.677 189.139 134.928 189.139ZM134.928 188.045C135.67 188.045 136.247 187.687 136.658 186.972C137.069 186.256 137.274 185.235 137.274 183.909C137.274 183.027 137.18 182.277 136.991 181.657C136.805 181.037 136.537 180.565 136.186 180.24C135.838 179.915 135.418 179.753 134.928 179.753C134.192 179.753 133.617 180.116 133.203 180.842C132.788 181.564 132.581 182.587 132.581 183.909C132.581 184.791 132.674 185.54 132.86 186.156C133.045 186.773 133.312 187.242 133.66 187.563C134.011 187.885 134.434 188.045 134.928 188.045ZM143.678 189.139C142.929 189.139 142.291 188.935 141.764 188.528C141.237 188.117 140.834 187.522 140.556 186.743C140.277 185.961 140.138 185.016 140.138 183.909C140.138 182.809 140.277 181.869 140.556 181.09C140.837 180.308 141.242 179.711 141.769 179.3C142.299 178.886 142.935 178.679 143.678 178.679C144.42 178.679 145.055 178.886 145.582 179.3C146.112 179.711 146.517 180.308 146.795 181.09C147.077 181.869 147.218 182.809 147.218 183.909C147.218 185.016 147.078 185.961 146.8 186.743C146.521 187.522 146.119 188.117 145.592 188.528C145.065 188.935 144.427 189.139 143.678 189.139ZM143.678 188.045C144.42 188.045 144.997 187.687 145.408 186.972C145.819 186.256 146.024 185.235 146.024 183.909C146.024 183.027 145.93 182.277 145.741 181.657C145.555 181.037 145.287 180.565 144.936 180.24C144.588 179.915 144.168 179.753 143.678 179.753C142.942 179.753 142.367 180.116 141.953 180.842C141.538 181.564 141.331 182.587 141.331 183.909C141.331 184.791 141.424 185.54 141.61 186.156C141.795 186.773 142.062 187.242 142.41 187.563C142.761 187.885 143.184 188.045 143.678 188.045ZM153.641 189H152.348L156.087 178.818H157.36L161.098 189H159.806L156.763 180.429H156.683L153.641 189ZM154.118 185.023H159.328V186.116H154.118V185.023ZM162.684 178.818H164.156L167.616 187.27H167.735L171.195 178.818H172.667V189H171.514V181.264H171.414L168.232 189H167.119L163.937 181.264H163.838V189H162.684V178.818ZM186.037 182C185.928 181.665 185.783 181.365 185.604 181.1C185.429 180.832 185.218 180.603 184.973 180.414C184.731 180.225 184.456 180.081 184.148 179.982C183.839 179.882 183.501 179.832 183.134 179.832C182.53 179.832 181.982 179.988 181.488 180.3C180.994 180.611 180.601 181.07 180.31 181.677C180.018 182.283 179.872 183.027 179.872 183.909C179.872 184.791 180.02 185.535 180.315 186.141C180.61 186.748 181.009 187.207 181.513 187.518C182.017 187.83 182.583 187.986 183.213 187.986C183.796 187.986 184.31 187.862 184.754 187.613C185.202 187.361 185.55 187.006 185.798 186.549C186.05 186.088 186.176 185.546 186.176 184.923L186.554 185.003H183.491V183.909H187.369V185.003C187.369 185.841 187.19 186.571 186.832 187.19C186.478 187.81 185.987 188.291 185.361 188.632C184.738 188.97 184.022 189.139 183.213 189.139C182.312 189.139 181.519 188.927 180.837 188.503C180.157 188.079 179.627 187.475 179.246 186.693C178.868 185.911 178.679 184.983 178.679 183.909C178.679 183.104 178.787 182.379 179.002 181.737C179.221 181.09 179.529 180.54 179.927 180.086C180.325 179.632 180.795 179.284 181.339 179.042C181.882 178.8 182.481 178.679 183.134 178.679C183.67 178.679 184.171 178.76 184.635 178.923C185.102 179.082 185.518 179.309 185.883 179.604C186.251 179.895 186.557 180.245 186.803 180.653C187.048 181.057 187.217 181.506 187.31 182H186.037ZM189.481 178.818H190.953L194.413 187.27H194.532L197.992 178.818H199.464V189H198.311V181.264H198.211L195.029 189H193.916L190.734 181.264H190.634V189H189.481V178.818ZM201.379 179.912V178.818H209.016V179.912H205.814V189H204.581V179.912H201.379ZM212.703 187.21V180.648H213.817V187.21H212.703ZM209.979 184.486V183.372H216.541V184.486H209.979ZM222.111 189.139C221.527 189.139 221.002 189.023 220.535 188.791C220.067 188.559 219.693 188.241 219.411 187.837C219.129 187.432 218.975 186.972 218.949 186.455H220.142C220.188 186.915 220.397 187.296 220.768 187.598C221.143 187.896 221.59 188.045 222.111 188.045C222.528 188.045 222.9 187.948 223.224 187.752C223.553 187.557 223.809 187.288 223.995 186.947C224.184 186.602 224.278 186.213 224.278 185.778C224.278 185.334 224.181 184.938 223.985 184.59C223.793 184.239 223.528 183.962 223.19 183.76C222.852 183.558 222.465 183.455 222.031 183.452C221.72 183.448 221.4 183.496 221.072 183.596C220.744 183.692 220.473 183.816 220.261 183.969L219.108 183.83L219.724 178.818H225.014V179.912H220.759L220.401 182.915H220.46C220.669 182.749 220.931 182.612 221.246 182.502C221.561 182.393 221.889 182.338 222.23 182.338C222.853 182.338 223.408 182.487 223.896 182.786C224.386 183.08 224.771 183.485 225.049 183.999C225.331 184.512 225.472 185.099 225.472 185.759C225.472 186.408 225.326 186.988 225.034 187.499C224.746 188.006 224.348 188.407 223.841 188.702C223.334 188.993 222.757 189.139 222.111 189.139ZM228.322 187.697C228.076 187.697 227.866 187.61 227.69 187.434C227.515 187.258 227.427 187.048 227.427 186.803C227.427 186.557 227.515 186.347 227.69 186.171C227.866 185.996 228.076 185.908 228.322 185.908C228.567 185.908 228.777 185.996 228.953 186.171C229.129 186.347 229.216 186.557 229.216 186.803C229.216 186.965 229.175 187.114 229.092 187.25C229.013 187.386 228.905 187.495 228.769 187.578C228.636 187.658 228.487 187.697 228.322 187.697ZM228.322 182.547C228.076 182.547 227.866 182.459 227.69 182.283C227.515 182.108 227.427 181.897 227.427 181.652C227.427 181.407 227.515 181.196 227.69 181.021C227.866 180.845 228.076 180.757 228.322 180.757C228.567 180.757 228.777 180.845 228.953 181.021C229.129 181.196 229.216 181.407 229.216 181.652C229.216 181.814 229.175 181.964 229.092 182.099C229.013 182.235 228.905 182.345 228.769 182.428C228.636 182.507 228.487 182.547 228.322 182.547ZM234.742 189.139C234.086 189.139 233.501 189.027 232.987 188.801C232.477 188.576 232.071 188.263 231.769 187.862C231.471 187.457 231.309 186.988 231.282 186.455H232.535C232.561 186.783 232.674 187.066 232.873 187.305C233.072 187.54 233.332 187.722 233.654 187.852C233.975 187.981 234.331 188.045 234.722 188.045C235.16 188.045 235.548 187.969 235.886 187.817C236.224 187.664 236.489 187.452 236.681 187.18C236.874 186.909 236.97 186.594 236.97 186.236C236.97 185.861 236.877 185.531 236.691 185.246C236.506 184.958 236.234 184.733 235.876 184.57C235.518 184.408 235.08 184.327 234.563 184.327H233.748V183.233H234.563C234.968 183.233 235.322 183.16 235.627 183.014C235.936 182.868 236.176 182.663 236.348 182.398C236.524 182.133 236.612 181.821 236.612 181.463C236.612 181.118 236.535 180.818 236.383 180.563C236.231 180.308 236.015 180.109 235.737 179.967C235.462 179.824 235.137 179.753 234.762 179.753C234.411 179.753 234.079 179.817 233.768 179.947C233.46 180.073 233.208 180.257 233.012 180.499C232.817 180.737 232.711 181.026 232.694 181.364H231.501C231.521 180.83 231.682 180.363 231.983 179.962C232.285 179.557 232.679 179.242 233.166 179.017C233.657 178.792 234.195 178.679 234.782 178.679C235.412 178.679 235.952 178.807 236.403 179.062C236.854 179.314 237.2 179.647 237.442 180.061C237.684 180.475 237.805 180.923 237.805 181.403C237.805 181.977 237.654 182.466 237.352 182.87C237.054 183.274 236.648 183.554 236.134 183.71V183.79C236.777 183.896 237.28 184.169 237.641 184.61C238.002 185.048 238.183 185.589 238.183 186.236C238.183 186.789 238.032 187.286 237.73 187.727C237.432 188.165 237.024 188.509 236.507 188.761C235.99 189.013 235.402 189.139 234.742 189.139ZM243.537 189.139C242.788 189.139 242.15 188.935 241.623 188.528C241.096 188.117 240.693 187.522 240.415 186.743C240.137 185.961 239.997 185.016 239.997 183.909C239.997 182.809 240.137 181.869 240.415 181.09C240.697 180.308 241.101 179.711 241.628 179.3C242.158 178.886 242.795 178.679 243.537 178.679C244.28 178.679 244.914 178.886 245.441 179.3C245.972 179.711 246.376 180.308 246.654 181.09C246.936 181.869 247.077 182.809 247.077 183.909C247.077 185.016 246.938 185.961 246.659 186.743C246.381 187.522 245.978 188.117 245.451 188.528C244.924 188.935 244.286 189.139 243.537 189.139ZM243.537 188.045C244.28 188.045 244.856 187.687 245.267 186.972C245.678 186.256 245.884 185.235 245.884 183.909C245.884 183.027 245.789 182.277 245.6 181.657C245.415 181.037 245.146 180.565 244.795 180.24C244.447 179.915 244.028 179.753 243.537 179.753C242.801 179.753 242.226 180.116 241.812 180.842C241.398 181.564 241.191 182.587 241.191 183.909C241.191 184.791 241.283 185.54 241.469 186.156C241.655 186.773 241.921 187.242 242.269 187.563C242.621 187.885 243.043 188.045 243.537 188.045Z" fill="white"/>
<path d="M361.719 148.75H360.312V147.227C360.312 147.051 360.137 146.875 359.961 146.875H358.789C358.584 146.875 358.438 147.051 358.438 147.227V148.75H354.688V147.227C354.688 147.051 354.512 146.875 354.336 146.875H353.164C352.959 146.875 352.812 147.051 352.812 147.227V148.75H351.406C350.615 148.75 350 149.395 350 150.156V160.469C350 161.26 350.615 161.875 351.406 161.875H361.719C362.48 161.875 363.125 161.26 363.125 160.469V150.156C363.125 149.395 362.48 148.75 361.719 148.75ZM361.543 160.469H351.582C351.465 160.469 351.406 160.41 351.406 160.293V151.562H361.719V160.293C361.719 160.41 361.631 160.469 361.543 160.469Z" fill="white"/>
<rect x="135" width="378" height="120" rx="10" fill="#3C6392"/>
<rect x="135" width="378" height="120" rx="10" fill="url(#paint1_linear_560_57)" fill-opacity="0.2"/>
<rect x="149" y="72" width="81" height="35" rx="10" fill="#0098FA"/>
<rect x="449" y="85" width="55" height="18" rx="9" fill="#FF0000"/>
<path d="M177.67 82.3636H180.102V90.4773C180.102 91.2273 179.934 91.8788 179.597 92.4318C179.263 92.9848 178.799 93.411 178.205 93.7102C177.61 94.0095 176.919 94.1591 176.131 94.1591C175.43 94.1591 174.794 94.036 174.222 93.7898C173.653 93.5398 173.203 93.161 172.869 92.6534C172.536 92.142 172.371 91.5 172.375 90.7273H174.824C174.831 91.0341 174.894 91.2973 175.011 91.517C175.133 91.733 175.297 91.8996 175.506 92.017C175.718 92.1307 175.968 92.1875 176.256 92.1875C176.559 92.1875 176.814 92.1231 177.023 91.9943C177.235 91.8617 177.396 91.6686 177.506 91.4148C177.616 91.161 177.67 90.8485 177.67 90.4773V82.3636ZM186.034 94.1705C185.152 94.1705 184.388 93.983 183.744 93.608C183.104 93.2292 182.61 92.7027 182.261 92.0284C181.913 91.3504 181.739 90.5644 181.739 89.6705C181.739 88.7689 181.913 87.9811 182.261 87.3068C182.61 86.6288 183.104 86.1023 183.744 85.7273C184.388 85.3485 185.152 85.1591 186.034 85.1591C186.917 85.1591 187.678 85.3485 188.318 85.7273C188.962 86.1023 189.458 86.6288 189.807 87.3068C190.155 87.9811 190.33 88.7689 190.33 89.6705C190.33 90.5644 190.155 91.3504 189.807 92.0284C189.458 92.7027 188.962 93.2292 188.318 93.608C187.678 93.983 186.917 94.1705 186.034 94.1705ZM186.045 92.2955C186.447 92.2955 186.782 92.1818 187.051 91.9545C187.32 91.7235 187.523 91.4091 187.659 91.0114C187.799 90.6136 187.869 90.161 187.869 89.6534C187.869 89.1458 187.799 88.6932 187.659 88.2955C187.523 87.8977 187.32 87.5833 187.051 87.3523C186.782 87.1212 186.447 87.0057 186.045 87.0057C185.64 87.0057 185.299 87.1212 185.023 87.3523C184.75 87.5833 184.544 87.8977 184.403 88.2955C184.267 88.6932 184.199 89.1458 184.199 89.6534C184.199 90.161 184.267 90.6136 184.403 91.0114C184.544 91.4091 184.75 91.7235 185.023 91.9545C185.299 92.1818 185.64 92.2955 186.045 92.2955ZM191.903 94V85.2727H194.324V94H191.903ZM193.119 84.1477C192.759 84.1477 192.451 84.0284 192.193 83.7898C191.939 83.5473 191.812 83.2576 191.812 82.9205C191.812 82.5871 191.939 82.3011 192.193 82.0625C192.451 81.8201 192.759 81.6989 193.119 81.6989C193.479 81.6989 193.786 81.8201 194.04 82.0625C194.297 82.3011 194.426 82.5871 194.426 82.9205C194.426 83.2576 194.297 83.5473 194.04 83.7898C193.786 84.0284 193.479 84.1477 193.119 84.1477ZM198.683 88.9545V94H196.263V85.2727H198.57V86.8125H198.672C198.865 86.3049 199.189 85.9034 199.643 85.608C200.098 85.3087 200.649 85.1591 201.297 85.1591C201.903 85.1591 202.431 85.2917 202.882 85.5568C203.333 85.822 203.683 86.2008 203.933 86.6932C204.183 87.1818 204.308 87.7652 204.308 88.4432V94H201.888V88.875C201.892 88.3409 201.755 87.9242 201.479 87.625C201.202 87.322 200.821 87.1705 200.337 87.1705C200.011 87.1705 199.723 87.2405 199.473 87.3807C199.227 87.5208 199.034 87.7254 198.893 87.9943C198.757 88.2595 198.687 88.5795 198.683 88.9545Z" fill="white"/>
<path d="M153.631 30L149.341 15.4545H153.744L155.733 24.4034H155.847L158.205 15.4545H161.67L164.028 24.4318H164.142L166.131 15.4545H170.534L166.244 30H162.466L159.994 21.875H159.881L157.409 30H153.631ZM175.827 30.1989C174.662 30.1989 173.658 29.9763 172.816 29.5312C171.978 29.0814 171.331 28.4375 170.877 27.5994C170.427 26.7566 170.202 25.7481 170.202 24.5739C170.202 23.447 170.429 22.4621 170.884 21.6193C171.338 20.7765 171.98 20.1207 172.809 19.652C173.637 19.1832 174.615 18.9489 175.742 18.9489C176.566 18.9489 177.311 19.0767 177.979 19.3324C178.647 19.5881 179.217 19.9598 179.691 20.4474C180.164 20.9304 180.529 21.5175 180.784 22.2088C181.04 22.9001 181.168 23.679 181.168 24.5455V25.4545H171.424V23.2955H177.56C177.555 22.983 177.475 22.7083 177.319 22.4716C177.167 22.2301 176.961 22.0431 176.701 21.9105C176.445 21.7732 176.154 21.7045 175.827 21.7045C175.51 21.7045 175.219 21.7732 174.953 21.9105C174.688 22.0431 174.475 22.2277 174.314 22.4645C174.158 22.7012 174.075 22.9782 174.066 23.2955V25.625C174.066 25.9754 174.139 26.2879 174.286 26.5625C174.433 26.8371 174.643 27.0526 174.918 27.2088C175.193 27.3651 175.524 27.4432 175.912 27.4432C176.182 27.4432 176.428 27.4053 176.651 27.3295C176.878 27.2538 177.072 27.1449 177.233 27.0028C177.394 26.8561 177.513 26.6809 177.588 26.4773H181.168C181.045 27.2348 180.754 27.893 180.294 28.4517C179.835 29.0057 179.227 29.4366 178.469 29.7443C177.716 30.0473 176.836 30.1989 175.827 30.1989ZM187.995 30.1989C186.83 30.1989 185.826 29.9763 184.984 29.5312C184.146 29.0814 183.499 28.4375 183.045 27.5994C182.595 26.7566 182.37 25.7481 182.37 24.5739C182.37 23.447 182.597 22.4621 183.052 21.6193C183.506 20.7765 184.148 20.1207 184.977 19.652C185.805 19.1832 186.783 18.9489 187.91 18.9489C188.734 18.9489 189.479 19.0767 190.147 19.3324C190.815 19.5881 191.385 19.9598 191.859 20.4474C192.332 20.9304 192.697 21.5175 192.952 22.2088C193.208 22.9001 193.336 23.679 193.336 24.5455V25.4545H183.592V23.2955H189.728C189.723 22.983 189.643 22.7083 189.487 22.4716C189.335 22.2301 189.129 22.0431 188.869 21.9105C188.613 21.7732 188.322 21.7045 187.995 21.7045C187.678 21.7045 187.387 21.7732 187.121 21.9105C186.856 22.0431 186.643 22.2277 186.482 22.4645C186.326 22.7012 186.243 22.9782 186.234 23.2955V25.625C186.234 25.9754 186.307 26.2879 186.454 26.5625C186.601 26.8371 186.811 27.0526 187.086 27.2088C187.361 27.3651 187.692 27.4432 188.08 27.4432C188.35 27.4432 188.596 27.4053 188.819 27.3295C189.046 27.2538 189.24 27.1449 189.401 27.0028C189.562 26.8561 189.681 26.6809 189.756 26.4773H193.336C193.213 27.2348 192.922 27.893 192.462 28.4517C192.003 29.0057 191.395 29.4366 190.637 29.7443C189.884 30.0473 189.004 30.1989 187.995 30.1989ZM198.458 27.4148L198.487 22.7557H198.998L201.64 19.0909H206.044L201.612 24.8011H200.504L198.458 27.4148ZM194.936 30V15.4545H198.856V30H194.936ZM201.669 30L199.169 25.6818L201.725 22.8977L206.157 30H201.669ZM210.985 15.4545V30H207.065V15.4545H210.985ZM215.369 34.0909C214.919 34.0909 214.491 34.0554 214.083 33.9844C213.676 33.9181 213.319 33.8258 213.011 33.7074L213.863 30.9233C214.185 31.0369 214.479 31.1103 214.744 31.1435C215.014 31.1766 215.243 31.1577 215.433 31.0866C215.627 31.0156 215.767 30.8807 215.852 30.6818L215.937 30.483L212.102 19.0909H216.193L217.954 26.6477H218.068L219.858 19.0909H223.977L220 30.9091C219.801 31.5104 219.512 32.0502 219.133 32.5284C218.759 33.0114 218.267 33.3925 217.656 33.6719C217.045 33.9512 216.283 34.0909 215.369 34.0909ZM242.599 20.9091H238.593C238.565 20.5777 238.489 20.277 238.366 20.0071C238.248 19.7372 238.082 19.5052 237.869 19.3111C237.661 19.1122 237.407 18.9607 237.109 18.8565C236.811 18.7476 236.472 18.6932 236.093 18.6932C235.431 18.6932 234.869 18.8542 234.41 19.1761C233.956 19.4981 233.61 19.9598 233.373 20.5611C233.141 21.1624 233.025 21.8845 233.025 22.7273C233.025 23.6174 233.144 24.3632 233.38 24.9645C233.622 25.5611 233.97 26.0109 234.424 26.3139C234.879 26.6122 235.426 26.7614 236.065 26.7614C236.43 26.7614 236.756 26.7164 237.045 26.6264C237.334 26.5317 237.585 26.3968 237.798 26.2216C238.011 26.0464 238.184 25.8357 238.316 25.5895C238.454 25.3385 238.546 25.0568 238.593 24.7443L242.599 24.7727C242.552 25.3883 242.379 26.0156 242.081 26.6548C241.782 27.2893 241.359 27.8764 240.809 28.4162C240.265 28.9512 239.59 29.3821 238.785 29.7088C237.98 30.0355 237.045 30.1989 235.98 30.1989C234.645 30.1989 233.447 29.9124 232.386 29.3395C231.33 28.7666 230.494 27.9238 229.879 26.8111C229.268 25.6984 228.963 24.3371 228.963 22.7273C228.963 21.108 229.275 19.7443 229.9 18.6364C230.525 17.5237 231.368 16.6832 232.429 16.1151C233.489 15.5421 234.673 15.2557 235.98 15.2557C236.898 15.2557 237.743 15.3812 238.515 15.6321C239.287 15.883 239.964 16.25 240.547 16.733C241.129 17.2112 241.598 17.8007 241.953 18.5014C242.308 19.2022 242.523 20.0047 242.599 20.9091ZM249.703 30.1989C248.519 30.1989 247.506 29.9645 246.663 29.4957C245.821 29.0223 245.174 28.3641 244.724 27.5213C244.275 26.6738 244.05 25.6913 244.05 24.5739C244.05 23.4564 244.275 22.4763 244.724 21.6335C245.174 20.786 245.821 20.1278 246.663 19.6591C247.506 19.1856 248.519 18.9489 249.703 18.9489C250.887 18.9489 251.9 19.1856 252.743 19.6591C253.586 20.1278 254.232 20.786 254.682 21.6335C255.132 22.4763 255.357 23.4564 255.357 24.5739C255.357 25.6913 255.132 26.6738 254.682 27.5213C254.232 28.3641 253.586 29.0223 252.743 29.4957C251.9 29.9645 250.887 30.1989 249.703 30.1989ZM249.732 27.3011C250.063 27.3011 250.349 27.1899 250.591 26.9673C250.832 26.7448 251.019 26.4276 251.152 26.0156C251.285 25.6037 251.351 25.1136 251.351 24.5455C251.351 23.9725 251.285 23.4825 251.152 23.0753C251.019 22.6634 250.832 22.3461 250.591 22.1236C250.349 21.901 250.063 21.7898 249.732 21.7898C249.381 21.7898 249.08 21.901 248.83 22.1236C248.579 22.3461 248.387 22.6634 248.254 23.0753C248.122 23.4825 248.055 23.9725 248.055 24.5455C248.055 25.1136 248.122 25.6037 248.254 26.0156C248.387 26.4276 248.579 26.7448 248.83 26.9673C249.08 27.1899 249.381 27.3011 249.732 27.3011ZM260.868 23.8636V30H256.947V19.0909H260.669V21.1648H260.783C261.019 20.4735 261.436 19.9313 262.033 19.5384C262.634 19.1454 263.335 18.9489 264.135 18.9489C264.907 18.9489 265.577 19.1264 266.145 19.4815C266.718 19.8319 267.161 20.3149 267.473 20.9304C267.79 21.5459 267.946 22.2491 267.942 23.0398V30H264.021V23.8636C264.026 23.3239 263.889 22.9001 263.609 22.5923C263.335 22.2846 262.951 22.1307 262.459 22.1307C262.137 22.1307 261.855 22.2017 261.614 22.3438C261.377 22.4811 261.195 22.6799 261.067 22.9403C260.939 23.196 260.873 23.5038 260.868 23.8636ZM276.383 19.0909V21.9318H269.195V19.0909H276.383ZM270.587 16.4773H274.508V26.4915C274.508 26.643 274.534 26.7708 274.586 26.875C274.638 26.9744 274.719 27.0502 274.827 27.1023C274.936 27.1496 275.076 27.1733 275.246 27.1733C275.365 27.1733 275.502 27.1591 275.658 27.1307C275.819 27.1023 275.938 27.0786 276.013 27.0597L276.582 29.8153C276.406 29.8674 276.156 29.9313 275.829 30.0071C275.507 30.0829 275.123 30.1326 274.678 30.1562C273.779 30.2036 273.023 30.1113 272.413 29.8793C271.802 29.6425 271.343 29.2708 271.035 28.7642C270.727 28.2576 270.578 27.6231 270.587 26.8608V16.4773ZM283.093 30.1989C281.928 30.1989 280.924 29.9763 280.081 29.5312C279.243 29.0814 278.597 28.4375 278.142 27.5994C277.693 26.7566 277.468 25.7481 277.468 24.5739C277.468 23.447 277.695 22.4621 278.15 21.6193C278.604 20.7765 279.246 20.1207 280.074 19.652C280.903 19.1832 281.881 18.9489 283.007 18.9489C283.831 18.9489 284.577 19.0767 285.245 19.3324C285.912 19.5881 286.483 19.9598 286.956 20.4474C287.43 20.9304 287.794 21.5175 288.05 22.2088C288.306 22.9001 288.434 23.679 288.434 24.5455V25.4545H278.689V23.2955H284.826C284.821 22.983 284.74 22.7083 284.584 22.4716C284.433 22.2301 284.227 22.0431 283.966 21.9105C283.711 21.7732 283.419 21.7045 283.093 21.7045C282.775 21.7045 282.484 21.7732 282.219 21.9105C281.954 22.0431 281.741 22.2277 281.58 22.4645C281.424 22.7012 281.341 22.9782 281.331 23.2955V25.625C281.331 25.9754 281.405 26.2879 281.551 26.5625C281.698 26.8371 281.909 27.0526 282.184 27.2088C282.458 27.3651 282.79 27.4432 283.178 27.4432C283.448 27.4432 283.694 27.4053 283.917 27.3295C284.144 27.2538 284.338 27.1449 284.499 27.0028C284.66 26.8561 284.778 26.6809 284.854 26.4773H288.434C288.31 27.2348 288.019 27.893 287.56 28.4517C287.101 29.0057 286.492 29.4366 285.735 29.7443C284.982 30.0473 284.101 30.1989 283.093 30.1989ZM300.005 22.642H296.397C296.378 22.4195 296.3 22.2277 296.163 22.0668C296.025 21.9058 295.848 21.7827 295.63 21.6974C295.417 21.6075 295.18 21.5625 294.92 21.5625C294.584 21.5625 294.295 21.6241 294.053 21.7472C293.812 21.8703 293.693 22.0455 293.698 22.2727C293.693 22.4337 293.762 22.5829 293.904 22.7202C294.051 22.8575 294.333 22.964 294.749 23.0398L296.965 23.4375C298.083 23.6411 298.914 23.9844 299.458 24.4673C300.007 24.9455 300.284 25.5871 300.289 26.392C300.284 27.1686 300.052 27.8433 299.593 28.4162C299.138 28.9844 298.516 29.4247 297.725 29.7372C296.939 30.045 296.042 30.1989 295.033 30.1989C293.367 30.1989 292.062 29.858 291.12 29.1761C290.183 28.4943 289.659 27.5947 289.55 26.4773H293.442C293.495 26.8229 293.665 27.0904 293.954 27.2798C294.247 27.4645 294.617 27.5568 295.062 27.5568C295.422 27.5568 295.718 27.4953 295.95 27.3722C296.186 27.2491 296.307 27.0739 296.312 26.8466C296.307 26.6383 296.203 26.4725 295.999 26.3494C295.8 26.2263 295.488 26.1269 295.062 26.0511L293.13 25.7102C292.017 25.5161 291.184 25.1468 290.63 24.6023C290.076 24.0578 289.801 23.357 289.806 22.5C289.801 21.7424 290 21.1009 290.403 20.5753C290.81 20.045 291.39 19.6425 292.143 19.3679C292.9 19.0885 293.798 18.9489 294.835 18.9489C296.411 18.9489 297.654 19.2756 298.563 19.929C299.477 20.5824 299.958 21.4867 300.005 22.642ZM308.297 19.0909V21.9318H301.109V19.0909H308.297ZM302.501 16.4773H306.422V26.4915C306.422 26.643 306.448 26.7708 306.5 26.875C306.552 26.9744 306.633 27.0502 306.741 27.1023C306.85 27.1496 306.99 27.1733 307.161 27.1733C307.279 27.1733 307.416 27.1591 307.572 27.1307C307.733 27.1023 307.852 27.0786 307.928 27.0597L308.496 29.8153C308.321 29.8674 308.07 29.9313 307.743 30.0071C307.421 30.0829 307.037 30.1326 306.592 30.1562C305.693 30.2036 304.938 30.1113 304.327 29.8793C303.716 29.6425 303.257 29.2708 302.949 28.7642C302.641 28.2576 302.492 27.6231 302.501 26.8608V16.4773ZM321.04 21.25V24.2045H314.222V21.25H321.04ZM334.46 15.4545V30H330.511V19.0909H330.426L327.244 20.9943V17.642L330.824 15.4545H334.46Z" fill="white"/>
<path d="M153.375 57.1392C152.626 57.1392 151.988 56.9354 151.461 56.5277C150.934 56.1167 150.531 55.5218 150.253 54.7429C149.974 53.9607 149.835 53.0161 149.835 51.9091C149.835 50.8087 149.974 49.8691 150.253 49.0902C150.535 48.308 150.939 47.7114 151.466 47.3004C151.996 46.8861 152.633 46.679 153.375 46.679C154.117 46.679 154.752 46.8861 155.279 47.3004C155.809 47.7114 156.214 48.308 156.492 49.0902C156.774 49.8691 156.915 50.8087 156.915 51.9091C156.915 53.0161 156.776 53.9607 156.497 54.7429C156.219 55.5218 155.816 56.1167 155.289 56.5277C154.762 56.9354 154.124 57.1392 153.375 57.1392ZM153.375 56.0455C154.117 56.0455 154.694 55.6875 155.105 54.9716C155.516 54.2557 155.722 53.2348 155.722 51.9091C155.722 51.0275 155.627 50.2768 155.438 49.657C155.253 49.0372 154.984 48.5649 154.633 48.2401C154.285 47.9152 153.866 47.7528 153.375 47.7528C152.639 47.7528 152.064 48.1158 151.65 48.8416C151.236 49.5642 151.028 50.5866 151.028 51.9091C151.028 52.7907 151.121 53.5398 151.307 54.1562C151.492 54.7727 151.759 55.2417 152.107 55.5632C152.459 55.8847 152.881 56.0455 153.375 56.0455ZM162.384 46.8182V57H161.151V48.1108H161.091L158.605 49.7614V48.5085L161.151 46.8182H162.384ZM170.741 51.0739L169.687 51.3722C169.621 51.1965 169.523 51.0258 169.393 50.8601C169.268 50.6911 169.095 50.5518 168.876 50.4425C168.658 50.3331 168.378 50.2784 168.036 50.2784C167.569 50.2784 167.179 50.3861 166.868 50.6016C166.56 50.8137 166.406 51.0838 166.406 51.4119C166.406 51.7036 166.512 51.9339 166.724 52.103C166.936 52.272 167.267 52.4129 167.718 52.5256L168.852 52.804C169.534 52.9697 170.043 53.2232 170.378 53.5646C170.713 53.9027 170.88 54.3385 170.88 54.8722C170.88 55.3097 170.754 55.7008 170.502 56.0455C170.254 56.3902 169.906 56.6619 169.458 56.8608C169.011 57.0597 168.49 57.1591 167.897 57.1591C167.118 57.1591 166.473 56.9901 165.963 56.652C165.453 56.3139 165.129 55.8201 164.994 55.1705L166.107 54.892C166.213 55.303 166.414 55.6113 166.709 55.8168C167.007 56.0223 167.397 56.125 167.877 56.125C168.424 56.125 168.858 56.009 169.18 55.777C169.504 55.5417 169.667 55.2599 169.667 54.9318C169.667 54.6667 169.574 54.4446 169.388 54.2656C169.203 54.0833 168.918 53.9474 168.533 53.858L167.261 53.5597C166.561 53.3939 166.048 53.1371 165.719 52.7891C165.395 52.4377 165.232 51.9986 165.232 51.4716C165.232 51.0407 165.353 50.6596 165.595 50.3281C165.84 49.9967 166.174 49.7365 166.594 49.5476C167.019 49.3587 167.499 49.2642 168.036 49.2642C168.792 49.2642 169.385 49.4299 169.816 49.7614C170.25 50.0928 170.558 50.5303 170.741 51.0739ZM175.967 49.3636V50.358H172.01V49.3636H175.967ZM173.163 47.5341H174.336V54.8125C174.336 55.1439 174.385 55.3925 174.481 55.5582C174.58 55.7206 174.706 55.83 174.858 55.8864C175.014 55.9394 175.178 55.9659 175.351 55.9659C175.48 55.9659 175.586 55.9593 175.669 55.946C175.752 55.9295 175.818 55.9162 175.868 55.9062L176.106 56.9602C176.027 56.9901 175.916 57.0199 175.773 57.0497C175.631 57.0829 175.45 57.0994 175.231 57.0994C174.9 57.0994 174.575 57.0282 174.257 56.8857C173.942 56.7431 173.68 56.526 173.471 56.2344C173.266 55.9427 173.163 55.5748 173.163 55.1307V47.5341ZM185.726 46.8182H186.959V54.0966C186.959 54.7462 186.84 55.2981 186.601 55.7521C186.363 56.2062 186.026 56.5509 185.592 56.7862C185.158 57.0215 184.646 57.1392 184.056 57.1392C183.499 57.1392 183.004 57.0381 182.569 56.8359C182.135 56.6304 181.794 56.3388 181.545 55.9609C181.297 55.5831 181.172 55.134 181.172 54.6136H182.385C182.385 54.902 182.457 55.1539 182.599 55.3693C182.745 55.5814 182.944 55.7472 183.196 55.8665C183.448 55.9858 183.734 56.0455 184.056 56.0455C184.411 56.0455 184.712 55.9709 184.961 55.8217C185.209 55.6726 185.398 55.4538 185.528 55.1655C185.66 54.8738 185.726 54.5175 185.726 54.0966V46.8182ZM191.518 57.179C191.034 57.179 190.595 57.0878 190.201 56.9055C189.806 56.7199 189.493 56.4531 189.261 56.1051C189.029 55.7538 188.913 55.3295 188.913 54.8324C188.913 54.3949 188.999 54.0402 189.172 53.7685C189.344 53.4934 189.574 53.2779 189.863 53.1222C190.151 52.9664 190.469 52.8504 190.817 52.7741C191.169 52.6946 191.522 52.6316 191.876 52.5852C192.34 52.5256 192.716 52.4808 193.005 52.451C193.296 52.4179 193.509 52.3632 193.641 52.2869C193.777 52.2107 193.845 52.0781 193.845 51.8892V51.8494C193.845 51.3589 193.711 50.9777 193.442 50.706C193.177 50.4342 192.774 50.2983 192.234 50.2983C191.674 50.2983 191.235 50.4209 190.917 50.6662C190.599 50.9115 190.375 51.1733 190.246 51.4517L189.132 51.054C189.331 50.59 189.596 50.2287 189.927 49.9702C190.262 49.7083 190.627 49.526 191.021 49.4233C191.419 49.3172 191.81 49.2642 192.194 49.2642C192.44 49.2642 192.721 49.294 193.04 49.3537C193.361 49.41 193.671 49.5277 193.969 49.7067C194.271 49.8857 194.521 50.1558 194.72 50.517C194.919 50.8783 195.018 51.3622 195.018 51.9688V57H193.845V55.9659H193.785C193.706 56.1316 193.573 56.3089 193.388 56.4979C193.202 56.6868 192.955 56.8475 192.647 56.9801C192.339 57.1127 191.962 57.179 191.518 57.179ZM191.697 56.125C192.161 56.125 192.552 56.0339 192.871 55.8516C193.192 55.6693 193.434 55.4339 193.596 55.1456C193.762 54.8572 193.845 54.554 193.845 54.2358V53.1619C193.795 53.2216 193.686 53.2763 193.517 53.326C193.351 53.3724 193.159 53.4138 192.94 53.4503C192.725 53.4834 192.514 53.5133 192.309 53.5398C192.107 53.563 191.943 53.5829 191.817 53.5994C191.512 53.6392 191.227 53.7038 190.961 53.7933C190.7 53.8795 190.488 54.0104 190.325 54.1861C190.166 54.3584 190.086 54.5937 190.086 54.892C190.086 55.2997 190.237 55.608 190.539 55.8168C190.844 56.0223 191.23 56.125 191.697 56.125ZM198.333 52.4062V57H197.16V49.3636H198.293V50.5568H198.393C198.572 50.169 198.844 49.8575 199.208 49.6222C199.573 49.3835 200.043 49.2642 200.62 49.2642C201.137 49.2642 201.589 49.3703 201.977 49.5824C202.365 49.7912 202.667 50.1094 202.882 50.5369C203.098 50.9612 203.205 51.4981 203.205 52.1477V57H202.032V52.2273C202.032 51.6274 201.876 51.16 201.565 50.8253C201.253 50.4872 200.826 50.3182 200.282 50.3182C199.907 50.3182 199.573 50.3994 199.278 50.5618C198.986 50.7242 198.756 50.9612 198.587 51.2727C198.418 51.5843 198.333 51.9621 198.333 52.4062ZM209.267 57V56.1051L212.628 52.4261C213.022 51.9953 213.347 51.6207 213.602 51.3026C213.857 50.9811 214.046 50.6795 214.169 50.3977C214.295 50.1127 214.358 49.8144 214.358 49.5028C214.358 49.1449 214.272 48.835 214.099 48.5732C213.93 48.3113 213.698 48.1091 213.403 47.9666C213.108 47.8241 212.777 47.7528 212.409 47.7528C212.018 47.7528 211.676 47.834 211.385 47.9964C211.096 48.1555 210.873 48.3793 210.714 48.6676C210.558 48.956 210.48 49.294 210.48 49.6818H209.307C209.307 49.0852 209.444 48.5616 209.719 48.1108C209.994 47.66 210.369 47.3087 210.843 47.0568C211.32 46.8049 211.855 46.679 212.449 46.679C213.045 46.679 213.574 46.8049 214.035 47.0568C214.495 47.3087 214.857 47.6484 215.118 48.076C215.38 48.5036 215.511 48.9792 215.511 49.5028C215.511 49.8774 215.443 50.2436 215.307 50.6016C215.175 50.9562 214.943 51.3523 214.611 51.7898C214.283 52.224 213.827 52.7543 213.244 53.3807L210.957 55.8267V55.9062H215.69V57H209.267ZM221.064 57.1392C220.315 57.1392 219.677 56.9354 219.15 56.5277C218.623 56.1167 218.221 55.5218 217.942 54.7429C217.664 53.9607 217.525 53.0161 217.525 51.9091C217.525 50.8087 217.664 49.8691 217.942 49.0902C218.224 48.308 218.628 47.7114 219.155 47.3004C219.686 46.8861 220.322 46.679 221.064 46.679C221.807 46.679 222.442 46.8861 222.969 47.3004C223.499 47.7114 223.903 48.308 224.182 49.0902C224.463 49.8691 224.604 50.8087 224.604 51.9091C224.604 53.0161 224.465 53.9607 224.187 54.7429C223.908 55.5218 223.506 56.1167 222.979 56.5277C222.452 56.9354 221.814 57.1392 221.064 57.1392ZM221.064 56.0455C221.807 56.0455 222.384 55.6875 222.795 54.9716C223.206 54.2557 223.411 53.2348 223.411 51.9091C223.411 51.0275 223.317 50.2768 223.128 49.657C222.942 49.0372 222.674 48.5649 222.322 48.2401C221.974 47.9152 221.555 47.7528 221.064 47.7528C220.329 47.7528 219.754 48.1158 219.339 48.8416C218.925 49.5642 218.718 50.5866 218.718 51.9091C218.718 52.7907 218.811 53.5398 218.996 54.1562C219.182 54.7727 219.449 55.2417 219.797 55.5632C220.148 55.8847 220.571 56.0455 221.064 56.0455ZM226.493 57V56.1051L229.854 52.4261C230.249 51.9953 230.573 51.6207 230.829 51.3026C231.084 50.9811 231.273 50.6795 231.395 50.3977C231.521 50.1127 231.584 49.8144 231.584 49.5028C231.584 49.1449 231.498 48.835 231.326 48.5732C231.157 48.3113 230.925 48.1091 230.63 47.9666C230.335 47.8241 230.003 47.7528 229.635 47.7528C229.244 47.7528 228.903 47.834 228.611 47.9964C228.323 48.1555 228.099 48.3793 227.94 48.6676C227.784 48.956 227.706 49.294 227.706 49.6818H226.533C226.533 49.0852 226.671 48.5616 226.946 48.1108C227.221 47.66 227.595 47.3087 228.069 47.0568C228.547 46.8049 229.082 46.679 229.675 46.679C230.272 46.679 230.8 46.8049 231.261 47.0568C231.722 47.3087 232.083 47.6484 232.345 48.076C232.607 48.5036 232.738 48.9792 232.738 49.5028C232.738 49.8774 232.67 50.2436 232.534 50.6016C232.401 50.9562 232.169 51.3523 231.838 51.7898C231.51 52.224 231.054 52.7543 230.471 53.3807L228.184 55.8267V55.9062H232.917V57H226.493ZM234.513 54.9119V53.8977L238.987 46.8182H239.723V48.3892H239.226L235.845 53.7386V53.8182H241.871V54.9119H234.513ZM239.305 57V54.6037V54.1314V46.8182H240.479V57H239.305ZM250.933 57.1392C250.25 57.1392 249.647 57.0182 249.123 56.7763C248.603 56.531 248.196 56.1946 247.905 55.767C247.613 55.3362 247.469 54.8456 247.472 54.2955C247.469 53.8646 247.554 53.4669 247.726 53.1023C247.898 52.7344 248.134 52.4278 248.432 52.1825C248.733 51.9339 249.07 51.7765 249.441 51.7102V51.6506C248.954 51.5246 248.566 51.2512 248.278 50.8303C247.989 50.406 247.847 49.9238 247.85 49.3835C247.847 48.8665 247.978 48.4041 248.243 47.9964C248.508 47.5888 248.873 47.2673 249.337 47.032C249.804 46.7966 250.336 46.679 250.933 46.679C251.522 46.679 252.049 46.7966 252.513 47.032C252.978 47.2673 253.342 47.5888 253.607 47.9964C253.876 48.4041 254.012 48.8665 254.015 49.3835C254.012 49.9238 253.864 50.406 253.572 50.8303C253.284 51.2512 252.901 51.5246 252.424 51.6506V51.7102C252.792 51.7765 253.123 51.9339 253.418 52.1825C253.713 52.4278 253.949 52.7344 254.124 53.1023C254.3 53.4669 254.389 53.8646 254.393 54.2955C254.389 54.8456 254.24 55.3362 253.945 55.767C253.654 56.1946 253.248 56.531 252.727 56.7763C252.21 57.0182 251.612 57.1392 250.933 57.1392ZM250.933 56.0455C251.393 56.0455 251.791 55.9709 252.126 55.8217C252.46 55.6726 252.719 55.4621 252.901 55.1903C253.084 54.9186 253.176 54.6004 253.18 54.2358C253.176 53.8513 253.077 53.5116 252.881 53.2166C252.686 52.9216 252.419 52.6896 252.081 52.5206C251.746 52.3516 251.363 52.267 250.933 52.267C250.498 52.267 250.111 52.3516 249.769 52.5206C249.431 52.6896 249.164 52.9216 248.969 53.2166C248.777 53.5116 248.682 53.8513 248.685 54.2358C248.682 54.6004 248.77 54.9186 248.949 55.1903C249.131 55.4621 249.391 55.6726 249.729 55.8217C250.067 55.9709 250.469 56.0455 250.933 56.0455ZM250.933 51.2131C251.297 51.2131 251.62 51.1402 251.902 50.9943C252.187 50.8485 252.411 50.6446 252.573 50.3828C252.736 50.121 252.818 49.8144 252.822 49.4631C252.818 49.1184 252.737 48.8184 252.578 48.5632C252.419 48.3047 252.199 48.1058 251.917 47.9666C251.635 47.8241 251.307 47.7528 250.933 47.7528C250.551 47.7528 250.218 47.8241 249.933 47.9666C249.648 48.1058 249.428 48.3047 249.272 48.5632C249.116 48.8184 249.04 49.1184 249.043 49.4631C249.04 49.8144 249.118 50.121 249.277 50.3828C249.439 50.6446 249.663 50.8485 249.948 50.9943C250.233 51.1402 250.561 51.2131 250.933 51.2131ZM257.173 55.6974C256.928 55.6974 256.717 55.6096 256.542 55.4339C256.366 55.2583 256.278 55.0478 256.278 54.8026C256.278 54.5573 256.366 54.3468 256.542 54.1712C256.717 53.9955 256.928 53.9077 257.173 53.9077C257.418 53.9077 257.629 53.9955 257.805 54.1712C257.98 54.3468 258.068 54.5573 258.068 54.8026C258.068 54.965 258.027 55.1141 257.944 55.25C257.864 55.3859 257.756 55.4953 257.621 55.5781C257.488 55.6577 257.339 55.6974 257.173 55.6974ZM257.173 50.5469C256.928 50.5469 256.717 50.459 256.542 50.2834C256.366 50.1077 256.278 49.8973 256.278 49.652C256.278 49.4067 256.366 49.1963 256.542 49.0206C256.717 48.8449 256.928 48.7571 257.173 48.7571C257.418 48.7571 257.629 48.8449 257.805 49.0206C257.98 49.1963 258.068 49.4067 258.068 49.652C258.068 49.8144 258.027 49.9635 257.944 50.0994C257.864 50.2353 257.756 50.3447 257.621 50.4276C257.488 50.5071 257.339 50.5469 257.173 50.5469ZM263.475 57.1392C262.726 57.1392 262.088 56.9354 261.561 56.5277C261.034 56.1167 260.631 55.5218 260.352 54.7429C260.074 53.9607 259.935 53.0161 259.935 51.9091C259.935 50.8087 260.074 49.8691 260.352 49.0902C260.634 48.308 261.039 47.7114 261.566 47.3004C262.096 46.8861 262.732 46.679 263.475 46.679C264.217 46.679 264.852 46.8861 265.379 47.3004C265.909 47.7114 266.313 48.308 266.592 49.0902C266.874 49.8691 267.014 50.8087 267.014 51.9091C267.014 53.0161 266.875 53.9607 266.597 54.7429C266.318 55.5218 265.916 56.1167 265.389 56.5277C264.862 56.9354 264.224 57.1392 263.475 57.1392ZM263.475 56.0455C264.217 56.0455 264.794 55.6875 265.205 54.9716C265.616 54.2557 265.821 53.2348 265.821 51.9091C265.821 51.0275 265.727 50.2768 265.538 49.657C265.352 49.0372 265.084 48.5649 264.732 48.2401C264.384 47.9152 263.965 47.7528 263.475 47.7528C262.739 47.7528 262.164 48.1158 261.749 48.8416C261.335 49.5642 261.128 50.5866 261.128 51.9091C261.128 52.7907 261.221 53.5398 261.406 54.1562C261.592 54.7727 261.859 55.2417 262.207 55.5632C262.558 55.8847 262.981 56.0455 263.475 56.0455ZM272.225 57.1392C271.476 57.1392 270.838 56.9354 270.311 56.5277C269.784 56.1167 269.381 55.5218 269.102 54.7429C268.824 53.9607 268.685 53.0161 268.685 51.9091C268.685 50.8087 268.824 49.8691 269.102 49.0902C269.384 48.308 269.789 47.7114 270.316 47.3004C270.846 46.8861 271.482 46.679 272.225 46.679C272.967 46.679 273.602 46.8861 274.129 47.3004C274.659 47.7114 275.063 48.308 275.342 49.0902C275.624 49.8691 275.764 50.8087 275.764 51.9091C275.764 53.0161 275.625 53.9607 275.347 54.7429C275.068 55.5218 274.666 56.1167 274.139 56.5277C273.612 56.9354 272.974 57.1392 272.225 57.1392ZM272.225 56.0455C272.967 56.0455 273.544 55.6875 273.955 54.9716C274.366 54.2557 274.571 53.2348 274.571 51.9091C274.571 51.0275 274.477 50.2768 274.288 49.657C274.102 49.0372 273.834 48.5649 273.482 48.2401C273.134 47.9152 272.715 47.7528 272.225 47.7528C271.489 47.7528 270.914 48.1158 270.499 48.8416C270.085 49.5642 269.878 50.5866 269.878 51.9091C269.878 52.7907 269.971 53.5398 270.156 54.1562C270.342 54.7727 270.609 55.2417 270.957 55.5632C271.308 55.8847 271.731 56.0455 272.225 56.0455ZM282.188 57H280.895L284.634 46.8182H285.906L289.645 57H288.352L285.31 48.429H285.23L282.188 57ZM282.665 53.0227H287.875V54.1165H282.665V53.0227ZM291.231 46.8182H292.703L296.163 55.2699H296.282L299.742 46.8182H301.214V57H300.061V49.2642H299.961L296.779 57H295.666L292.484 49.2642H292.384V57H291.231V46.8182ZM314.584 50C314.474 49.6652 314.33 49.3653 314.151 49.1001C313.976 48.8317 313.765 48.603 313.52 48.4141C313.278 48.2251 313.003 48.081 312.695 47.9815C312.386 47.8821 312.048 47.8324 311.68 47.8324C311.077 47.8324 310.529 47.9882 310.035 48.2997C309.541 48.6113 309.148 49.0703 308.857 49.6768C308.565 50.2834 308.419 51.0275 308.419 51.9091C308.419 52.7907 308.567 53.5348 308.862 54.1413C309.156 54.7479 309.556 55.2069 310.06 55.5185C310.563 55.83 311.13 55.9858 311.76 55.9858C312.343 55.9858 312.857 55.8615 313.301 55.6129C313.749 55.361 314.097 55.0064 314.345 54.549C314.597 54.0883 314.723 53.5464 314.723 52.9233L315.101 53.0028H312.038V51.9091H315.916V53.0028C315.916 53.8414 315.737 54.5705 315.379 55.1903C315.025 55.8101 314.534 56.2907 313.908 56.6321C313.285 56.9702 312.569 57.1392 311.76 57.1392C310.858 57.1392 310.066 56.9271 309.384 56.5028C308.704 56.0786 308.174 55.4754 307.793 54.6932C307.415 53.911 307.226 52.983 307.226 51.9091C307.226 51.1037 307.334 50.3795 307.549 49.7365C307.768 49.0902 308.076 48.54 308.474 48.0859C308.871 47.6319 309.342 47.2839 309.886 47.0419C310.429 46.8 311.027 46.679 311.68 46.679C312.217 46.679 312.718 46.7602 313.182 46.9226C313.649 47.0817 314.065 47.3087 314.43 47.6037C314.798 47.8954 315.104 48.245 315.349 48.6527C315.595 49.0571 315.764 49.5062 315.857 50H314.584ZM318.028 46.8182H319.499L322.96 55.2699H323.079L326.539 46.8182H328.011V57H326.857V49.2642H326.758L323.576 57H322.463L319.281 49.2642H319.181V57H318.028V46.8182ZM329.926 47.9119V46.8182H337.562V47.9119H334.361V57H333.128V47.9119H329.926ZM341.25 55.2102V48.6477H342.364V55.2102H341.25ZM338.526 52.4858V51.3722H345.088V52.4858H338.526ZM350.658 57.1392C350.074 57.1392 349.549 57.0232 349.082 56.7912C348.614 56.5592 348.24 56.241 347.958 55.8366C347.676 55.4323 347.522 54.9716 347.496 54.4545H348.689C348.735 54.9152 348.944 55.2964 349.315 55.598C349.69 55.8963 350.137 56.0455 350.658 56.0455C351.075 56.0455 351.446 55.9477 351.771 55.7521C352.099 55.5566 352.356 55.2881 352.542 54.9467C352.731 54.602 352.825 54.2126 352.825 53.7784C352.825 53.3343 352.728 52.9382 352.532 52.5902C352.34 52.2389 352.075 51.9621 351.737 51.7599C351.398 51.5578 351.012 51.455 350.578 51.4517C350.267 51.4484 349.947 51.4964 349.619 51.5959C349.29 51.692 349.02 51.8163 348.808 51.9688L347.655 51.8295L348.271 46.8182H353.561V47.9119H349.305L348.947 50.9148H349.007C349.216 50.7491 349.478 50.6115 349.793 50.5021C350.107 50.3928 350.436 50.3381 350.777 50.3381C351.4 50.3381 351.955 50.4872 352.442 50.7855C352.933 51.0805 353.317 51.4848 353.596 51.9986C353.878 52.5123 354.018 53.099 354.018 53.7585C354.018 54.4081 353.873 54.9882 353.581 55.4986C353.293 56.0057 352.895 56.4067 352.388 56.7017C351.881 56.9934 351.304 57.1392 350.658 57.1392ZM356.868 55.6974C356.623 55.6974 356.413 55.6096 356.237 55.4339C356.061 55.2583 355.974 55.0478 355.974 54.8026C355.974 54.5573 356.061 54.3468 356.237 54.1712C356.413 53.9955 356.623 53.9077 356.868 53.9077C357.114 53.9077 357.324 53.9955 357.5 54.1712C357.675 54.3468 357.763 54.5573 357.763 54.8026C357.763 54.965 357.722 55.1141 357.639 55.25C357.559 55.3859 357.452 55.4953 357.316 55.5781C357.183 55.6577 357.034 55.6974 356.868 55.6974ZM356.868 50.5469C356.623 50.5469 356.413 50.459 356.237 50.2834C356.061 50.1077 355.974 49.8973 355.974 49.652C355.974 49.4067 356.061 49.1963 356.237 49.0206C356.413 48.8449 356.623 48.7571 356.868 48.7571C357.114 48.7571 357.324 48.8449 357.5 49.0206C357.675 49.1963 357.763 49.4067 357.763 49.652C357.763 49.8144 357.722 49.9635 357.639 50.0994C357.559 50.2353 357.452 50.3447 357.316 50.4276C357.183 50.5071 357.034 50.5469 356.868 50.5469ZM363.289 57.1392C362.633 57.1392 362.048 57.0265 361.534 56.8011C361.024 56.5758 360.618 56.2625 360.316 55.8615C360.018 55.4571 359.856 54.9882 359.829 54.4545H361.082C361.108 54.7827 361.221 55.0661 361.42 55.3047C361.619 55.54 361.879 55.7223 362.2 55.8516C362.522 55.9808 362.878 56.0455 363.269 56.0455C363.707 56.0455 364.095 55.9692 364.433 55.8168C364.771 55.6643 365.036 55.4522 365.228 55.1804C365.42 54.9086 365.517 54.5938 365.517 54.2358C365.517 53.8613 365.424 53.5315 365.238 53.2464C365.052 52.9581 364.781 52.7327 364.423 52.5703C364.065 52.4079 363.627 52.3267 363.11 52.3267H362.295V51.233H363.11C363.515 51.233 363.869 51.16 364.174 51.0142C364.482 50.8684 364.723 50.6629 364.895 50.3977C365.071 50.1326 365.159 49.821 365.159 49.4631C365.159 49.1184 365.082 48.8184 364.93 48.5632C364.777 48.308 364.562 48.1091 364.284 47.9666C364.008 47.8241 363.684 47.7528 363.309 47.7528C362.958 47.7528 362.626 47.8175 362.315 47.9467C362.007 48.0727 361.755 48.2566 361.559 48.4986C361.364 48.7372 361.258 49.0256 361.241 49.3636H360.048C360.068 48.83 360.228 48.3627 360.53 47.9616C360.832 47.5573 361.226 47.2424 361.713 47.017C362.204 46.7917 362.742 46.679 363.329 46.679C363.959 46.679 364.499 46.8066 364.95 47.0618C365.401 47.3137 365.747 47.6468 365.989 48.0611C366.231 48.4754 366.352 48.9228 366.352 49.4034C366.352 49.9768 366.201 50.4657 365.899 50.87C365.601 51.2744 365.195 51.5545 364.681 51.7102V51.7898C365.324 51.8958 365.826 52.1693 366.188 52.6101C366.549 53.0476 366.73 53.5895 366.73 54.2358C366.73 54.7893 366.579 55.2865 366.277 55.7273C365.979 56.1648 365.571 56.5095 365.054 56.7614C364.537 57.0133 363.949 57.1392 363.289 57.1392ZM372.084 57.1392C371.335 57.1392 370.697 56.9354 370.17 56.5277C369.643 56.1167 369.24 55.5218 368.962 54.7429C368.683 53.9607 368.544 53.0161 368.544 51.9091C368.544 50.8087 368.683 49.8691 368.962 49.0902C369.244 48.308 369.648 47.7114 370.175 47.3004C370.705 46.8861 371.342 46.679 372.084 46.679C372.826 46.679 373.461 46.8861 373.988 47.3004C374.518 47.7114 374.923 48.308 375.201 49.0902C375.483 49.8691 375.624 50.8087 375.624 51.9091C375.624 53.0161 375.485 53.9607 375.206 54.7429C374.928 55.5218 374.525 56.1167 373.998 56.5277C373.471 56.9354 372.833 57.1392 372.084 57.1392ZM372.084 56.0455C372.826 56.0455 373.403 55.6875 373.814 54.9716C374.225 54.2557 374.431 53.2348 374.431 51.9091C374.431 51.0275 374.336 50.2768 374.147 49.657C373.962 49.0372 373.693 48.5649 373.342 48.2401C372.994 47.9152 372.575 47.7528 372.084 47.7528C371.348 47.7528 370.773 48.1158 370.359 48.8416C369.945 49.5642 369.737 50.5866 369.737 51.9091C369.737 52.7907 369.83 53.5398 370.016 54.1562C370.201 54.7727 370.468 55.2417 370.816 55.5632C371.168 55.8847 371.59 56.0455 372.084 56.0455Z" fill="white"/>
<rect x="454" y="90" width="8" height="8" rx="4" fill="white"/>
<path d="M469.759 98V89.2727H471.604V96.4787H475.345V98H469.759ZM478.412 89.2727V98H476.567V89.2727H478.412ZM481.507 89.2727L483.616 95.9034H483.697L485.811 89.2727H487.857L484.848 98H482.47L479.457 89.2727H481.507ZM488.907 98V89.2727H494.788V90.794H490.752V92.8736H494.485V94.3949H490.752V96.4787H494.805V98H488.907Z" fill="white"/>
<path d="M496.719 16.75H495.312V15.2266C495.312 15.0508 495.137 14.875 494.961 14.875H493.789C493.584 14.875 493.438 15.0508 493.438 15.2266V16.75H489.688V15.2266C489.688 15.0508 489.512 14.875 489.336 14.875H488.164C487.959 14.875 487.812 15.0508 487.812 15.2266V16.75H486.406C485.615 16.75 485 17.3945 485 18.1562V28.4688C485 29.2598 485.615 29.875 486.406 29.875H496.719C497.48 29.875 498.125 29.2598 498.125 28.4688V18.1562C498.125 17.3945 497.48 16.75 496.719 16.75ZM496.543 28.4688H486.582C486.465 28.4688 486.406 28.4102 486.406 28.293V19.5625H496.719V28.293C496.719 28.4102 496.631 28.4688 496.543 28.4688Z" fill="white"/>
</g>
<defs>
<linearGradient id="paint0_linear_560_57" x1="189" y1="132" x2="189" y2="252" gradientUnits="userSpaceOnUse">
<stop/>
<stop offset="1" stop-opacity="0"/>
</linearGradient>
<linearGradient id="paint1_linear_560_57" x1="324" y1="0" x2="324" y2="120" gradientUnits="userSpaceOnUse">
<stop/>
<stop offset="1" stop-opacity="0"/>
</linearGradient>
<clipPath id="clip0_560_57">
<rect width="513" height="252" fill="white"/>
</clipPath>
</defs>
</svg>
